<svg width="50" height="50" viewBox="0 0 50 50" fill="none" xmlns="http://www.w3.org/2000/svg">
<g opacity="0.8" filter="url(#filter0_b_377_7596)">
<circle cx="25" cy="25" r="25" fill="#EFE8FF"/>
</g>
<path d="M38.2613 18.0216H38.279C38.709 18.0228 39.0776 17.7145 39.1527 17.2908C39.2277 16.867 38.9875 16.4507 38.5833 16.3038L25.4056 9.27257C25.1452 9.1331 24.8324 9.1331 24.5721 9.27257L11.3006 16.3561C10.9435 16.548 10.7624 16.9582 10.861 17.3517C10.9597 17.7451 11.3129 18.0212 11.7182 18.0216H13.4877V32.1887H12.603C12.1971 32.1887 11.8433 32.465 11.7447 32.8589L10.86 36.4007C10.7201 36.9596 11.1424 37.5013 11.7182 37.5013H38.279C38.9294 37.5014 39.3576 36.8227 39.0779 36.2351L38.2347 32.8589C38.1361 32.465 37.7823 32.1887 37.3765 32.1887H36.4917V18.0216H38.2613ZM24.9897 11.0558L34.7222 16.2507H15.2573L24.9897 11.0558ZM34.7222 18.0216V32.1887H31.1831V18.0216H34.7222ZM29.4136 18.0216V32.1887H25.8745V18.0216H29.4136ZM24.105 18.0216V32.1887H20.5659V18.0216H24.105ZM15.2573 18.0216H18.7963V32.1887H15.2573V18.0216ZM36.6864 33.9595L37.1288 35.7304H12.8507L13.2931 33.9595H36.6864Z" fill="#754FFE"/>
<defs>
<filter id="filter0_b_377_7596" x="-8" y="-8" width="66" height="66" filterUnits="userSpaceOnUse" colorInterpolationFilters="sRGB">
<feFlood floodOpacity="0" result="BackgroundImageFix"/>
<feGaussianBlur in="BackgroundImageFix" stdDeviation="4"/>
<feComposite in2="SourceAlpha" operator="in" result="effect1_backgroundBlur_377_7596"/>
<feBlend mode="normal" in="SourceGraphic" in2="effect1_backgroundBlur_377_7596" result="shape"/>
</filter>
</defs>
</svg>
