<svg width="1920" height="1080" viewBox="0 0 1920 1080" fill="none" xmlns="http://www.w3.org/2000/svg" xmlns:xlink="http://www.w3.org/1999/xlink">
<rect width="1920" height="1080" fill="black"/>
<!-- <rect x="9" y="52" width="1911" height="965" fill="url(#pattern0)"/> -->
<path d="M100 54H60V94" stroke="white" strokeWidth="2" stroke-linecap="square"/>
<path d="M100 1037H60V997" stroke="white" strokeWidth="2" stroke-linecap="square"/>
<path d="M1820 54H1860V94" stroke="white" strokeWidth="2" stroke-linecap="square"/>
<path d="M1820 1037H1860V997" stroke="white" strokeWidth="2" stroke-linecap="square"/>
<path d="M1845.55 655C1845.55 629.633 1824.29 609.012 1798 609.012C1771.7 609.012 1750.45 629.633 1750.45 655C1750.45 680.368 1771.7 700.988 1798 700.988C1824.29 700.988 1845.55 680.368 1845.55 655Z" stroke="#8462FF" strokeWidth="2"/>
<path d="M1805.61 636.92C1810.56 638.872 1814.52 642.667 1816.59 647.422L1816.13 647.622C1817.12 649.89 1817.67 652.383 1817.67 655C1817.67 657.616 1817.12 660.109 1816.13 662.377L1816.59 662.577C1814.52 667.332 1810.56 671.127 1805.61 673.079L1805.43 672.614C1803.14 673.519 1800.63 674.018 1798 674.018C1795.37 674.018 1792.86 673.519 1790.57 672.614L1790.39 673.079C1785.44 671.127 1781.48 667.332 1779.41 662.577L1779.87 662.377C1778.88 660.109 1778.33 657.616 1778.33 655C1778.33 652.383 1778.88 649.89 1779.87 647.622L1779.41 647.422C1781.48 642.667 1785.44 638.872 1790.39 636.92L1790.57 637.385C1792.86 636.48 1795.37 635.981 1798 635.981C1800.63 635.981 1803.14 636.48 1805.43 637.385L1805.61 636.92Z" stroke="white" stroke-dasharray="30 30"/>
<line x1="1797" y1="613.795" x2="1797" y2="595" stroke="white" strokeWidth="2"/>
<line x1="1797" y1="715" x2="1797" y2="696.205" stroke="white" strokeWidth="2"/>
<line x1="1840.58" y1="654" x2="1860" y2="654" stroke="white" strokeWidth="2"/>
<line x1="1736" y1="654" x2="1755.42" y2="654" stroke="white" strokeWidth="2"/>
<line opacity="0.5" x1="60" y1="810" x2="1860" y2="810" stroke="white" strokeWidth="2"/>
<line opacity="0.5" x1="961" y1="811" x2="961" y2="901" stroke="white" strokeWidth="2"/>
<path d="M1031.84 836.08C1033.24 836.08 1034.38 835.62 1035.26 834.7C1036.15 833.767 1036.6 832.547 1036.6 831.04C1036.6 829.52 1036.15 828.3 1035.26 827.38C1034.38 826.46 1033.24 826 1031.84 826C1030.44 826 1029.29 826.46 1028.4 827.38C1027.52 828.3 1027.08 829.52 1027.08 831.04C1027.08 832.547 1027.52 833.767 1028.4 834.7C1029.29 835.62 1030.44 836.08 1031.84 836.08ZM1031.84 838.14C1029.85 838.14 1028.17 837.473 1026.8 836.14C1025.43 834.793 1024.74 833.093 1024.74 831.04C1024.74 828.973 1025.43 827.273 1026.8 825.94C1028.17 824.593 1029.85 823.92 1031.84 823.92C1033.84 823.92 1035.52 824.593 1036.88 825.94C1038.25 827.273 1038.94 828.973 1038.94 831.04C1038.94 833.093 1038.25 834.793 1036.88 836.14C1035.52 837.473 1033.84 838.14 1031.84 838.14ZM1185.98 824.1C1187.56 824.1 1188.77 824.493 1189.62 825.28C1190.48 826.053 1190.9 827.027 1190.9 828.2C1190.9 829.36 1190.5 830.347 1189.68 831.16C1188.88 831.96 1187.65 832.36 1185.98 832.36H1183.46V838H1181.18V824.1H1185.98ZM1183.46 830.58H1185.98C1186.85 830.58 1187.5 830.373 1187.92 829.96C1188.35 829.547 1188.56 828.973 1188.56 828.24C1188.56 827.493 1188.35 826.913 1187.92 826.5C1187.5 826.087 1186.85 825.88 1185.98 825.88H1183.46V830.58ZM1340.76 824.08V825.86H1335.36V830.08H1340.16V831.84H1335.36V836.22H1340.76V838H1333.08V824.08H1340.76ZM1492.71 824.08H1494.99V838H1492.71L1485.85 827.62V838H1483.57V824.08H1485.85L1492.71 834.44V824.08ZM1637.98 838V824.1H1646.16V825.88H1640.26V830.1H1644.86V831.86H1640.26V838H1637.98ZM1788.27 838V824.1H1790.55V838H1788.27Z" fill="white"/>
</svg>
