<svg width="352" height="417" viewBox="0 0 352 417" fill="none" xmlns="http://www.w3.org/2000/svg">
<line opacity="0.5" x1="1" y1="364.5" x2="351" y2="364.5" stroke="white"/>
<line opacity="0.5" x1="176.5" y1="365" x2="176.5" y2="393" stroke="white"/>
<path d="M192.93 379.07C192.283 379.07 191.693 378.92 191.16 378.62C190.627 378.313 190.203 377.89 189.89 377.35C189.583 376.803 189.43 376.19 189.43 375.51C189.43 374.83 189.583 374.22 189.89 373.68C190.203 373.133 190.627 372.71 191.16 372.41C191.693 372.103 192.283 371.95 192.93 371.95C193.583 371.95 194.177 372.103 194.71 372.41C195.243 372.71 195.663 373.13 195.97 373.67C196.277 374.21 196.43 374.823 196.43 375.51C196.43 376.197 196.277 376.81 195.97 377.35C195.663 377.89 195.243 378.313 194.71 378.62C194.177 378.92 193.583 379.07 192.93 379.07ZM192.93 378.28C193.417 378.28 193.853 378.167 194.24 377.94C194.633 377.713 194.94 377.39 195.16 376.97C195.387 376.55 195.5 376.063 195.5 375.51C195.5 374.95 195.387 374.463 195.16 374.05C194.94 373.63 194.637 373.307 194.25 373.08C193.863 372.853 193.423 372.74 192.93 372.74C192.437 372.74 191.997 372.853 191.61 373.08C191.223 373.307 190.917 373.63 190.69 374.05C190.47 374.463 190.36 374.95 190.36 375.51C190.36 376.063 190.47 376.55 190.69 376.97C190.917 377.39 191.223 377.713 191.61 377.94C192.003 378.167 192.443 378.28 192.93 378.28ZM224.191 374.07C224.191 374.65 223.991 375.133 223.591 375.52C223.198 375.9 222.595 376.09 221.781 376.09H220.441V379H219.531V372.03H221.781C222.568 372.03 223.165 372.22 223.571 372.6C223.985 372.98 224.191 373.47 224.191 374.07ZM221.781 375.34C222.288 375.34 222.661 375.23 222.901 375.01C223.141 374.79 223.261 374.477 223.261 374.07C223.261 373.21 222.768 372.78 221.781 372.78H220.441V375.34H221.781ZM248.132 372.77V375.1H250.672V375.85H248.132V378.25H250.972V379H247.222V372.02H250.972V372.77H248.132ZM279.729 379H278.819L275.159 373.45V379H274.249V372.02H275.159L278.819 377.56V372.02H279.729V379ZM307.121 372.03V372.77H304.091V375.12H306.551V375.86H304.091V379H303.181V372.03H307.121ZM331.03 372.03V379H330.12V372.03H331.03Z" fill="white"/>
<path d="M346.163 307.355C346.163 299.275 339.39 292.698 331 292.698C322.61 292.698 315.837 299.275 315.837 307.355C315.837 315.435 322.61 322.012 331 322.012C339.39 322.012 346.163 315.435 346.163 307.355Z" stroke="#8462FF"/>
<path d="M333.456 301.523C335.051 302.152 336.329 303.376 336.998 304.911L336.539 305.11C336.84 305.8 337.006 306.558 337.006 307.355C337.006 308.151 336.84 308.909 336.539 309.599L336.998 309.799C336.329 311.333 335.051 312.557 333.456 313.187L333.273 312.722C332.573 312.998 331.806 313.151 331 313.151C330.195 313.151 329.428 312.998 328.728 312.722L328.544 313.187C326.95 312.557 325.671 311.333 325.003 309.799L325.461 309.599C325.16 308.909 324.994 308.151 324.994 307.355C324.994 306.558 325.16 305.8 325.461 305.11L325.003 304.911C325.671 303.376 326.95 302.152 328.544 301.523L328.728 301.988C329.428 301.711 330.195 301.559 331 301.559C331.806 301.559 332.573 301.711 333.273 301.988L333.456 301.523Z" stroke="white" stroke-dasharray="30 30"/>
<line x1="330.5" y1="294.063" x2="330.5" y2="288" stroke="white"/>
<line x1="330.5" y1="326.71" x2="330.5" y2="320.647" stroke="white"/>
<line x1="344.735" y1="306.855" x2="351" y2="306.855" stroke="white"/>
<line x1="311" y1="306.855" x2="317.265" y2="306.855" stroke="white"/>
<path d="M11 1H1V11" stroke="white" stroke-linecap="square"/>
<path d="M341 1H351V11" stroke="white" stroke-linecap="square"/>
<path d="M11 416H1V406" stroke="white" stroke-linecap="square"/>
<path d="M341 416H351V406" stroke="white" stroke-linecap="square"/>
</svg>
