<svg width="350" height="154" viewBox="0 0 350 154" fill="none" xmlns="http://www.w3.org/2000/svg">
<g filter="url(#filter0_b_1119_4)">
<rect width="350" height="154" fill="#FF5E00"/>
</g>
<path fillRule="evenodd" fillRule="evenodd" d="M0 0H14.6409V14.1061L28.2831 14.1059L28.2829 0H42.2504V14.1061L55.8926 14.1059L55.8934 0H70.5343V14.1061L84.1764 14.1059L84.1762 0H98.1437V14.1061L111.786 14.1059L111.786 0H126.427V14.1061L140.07 14.1059L140.07 0H154.711V14.1061H167.68V0H182.32V14.1061L195.963 14.1059L195.962 0H209.93V14.1061L223.573 14.1059L223.573 0H238.214V14.1061L251.856 14.1059L251.856 0H265.824V14.1061L279.465 14.1059V0H294.106V14.1059H307.75L307.75 0H322.391V14.1061H335.359V0H350V14.6045H335.858L335.858 27.8899H350V42.4944H335.858L335.858 56.102L350 56.1017V70.0346H335.858L335.858 83.6422L350 83.6429V98.2474L335.858 98.2475V111.855L350 111.855V125.788L335.858 125.787V139.395L350 139.395V154H335.359L335.359 139.894H322.39L322.391 154H307.75L307.75 139.894H294.106V154H279.465V139.894H265.825L265.824 154H251.856L251.856 139.894H238.214L238.214 154H223.573L223.573 139.894H209.931L209.93 154H195.962L195.963 139.894H182.321L182.32 154H167.68V139.894L154.711 139.894L154.711 154H140.07L140.07 139.894H126.427L126.427 154H111.786L111.786 139.894H98.144L98.1437 154H84.1762L84.1764 139.894H70.5341L70.5343 154H55.8934L55.8926 139.894H42.2502L42.2504 154H28.2829L28.2831 139.894H14.6407L14.6409 154H0V139.395L14.1414 139.395V125.787L0 125.788V111.855L14.1414 111.855V98.2475L0 98.2474V83.6429L14.1414 83.6422L14.1416 70.0346H0V56.1017L14.1414 56.102L14.1416 42.4944H0V27.8899H14.1414L14.1416 14.6045H0V0ZM14.1417 14.1061V0.498382H0.499287V14.1061H14.1417ZM14.6409 14.6045L14.6407 27.8899L14.6409 28.2121H28.2829L28.2829 27.8899L28.2831 14.6043L14.6409 14.6045ZM28.7824 14.6043V27.8899H41.7509L41.7511 14.6045L28.7824 14.6043ZM41.7511 14.1061V0.498382H28.7821L28.7824 14.1059L41.7511 14.1061ZM42.2504 14.6045L42.2502 27.8899L42.2504 28.2121H55.8926V14.6043L42.2504 14.6045ZM56.3919 14.6043V27.8899H70.0348L70.035 14.6045L56.3919 14.6043ZM70.035 14.1061V0.498382H56.3926L56.3919 14.1059L70.035 14.1061ZM70.5343 14.6045L70.5341 27.8899L70.5343 28.2121H84.1762V27.8899L84.1764 14.6043L70.5343 14.6045ZM84.6757 14.6043V27.8899H97.6447L97.6444 14.6045L84.6757 14.6043ZM97.6444 14.1061V0.498382H84.6755L84.6757 14.1059L97.6444 14.1061ZM98.1437 14.6045L98.144 28.2121H111.786V27.8899L111.786 14.6043L98.1437 14.6045ZM112.286 14.6043V27.8899H125.928L125.928 14.6045L112.286 14.6043ZM125.928 14.1061V0.498382H112.285L112.286 14.1059L125.928 14.1061ZM126.427 14.6045L126.427 28.2121H140.07V14.6043L126.427 14.6045ZM140.569 14.6043V27.8899H154.211L154.212 14.6045L140.569 14.6043ZM154.212 14.1061V0.498382H140.569L140.569 14.1059L154.212 14.1061ZM154.711 14.6045V28.2121H167.68V14.6045H154.711ZM168.179 14.6045L168.179 27.8899H181.821L181.821 14.6045H168.179ZM181.821 14.1061V0.498382H168.179V14.1061H181.821ZM182.32 14.6045L182.321 28.2121H195.962L195.962 27.8899L195.963 14.6043L182.32 14.6045ZM196.462 14.6043V27.8899H209.431L209.431 14.6045L196.462 14.6043ZM209.431 14.1061V0.498382H196.462L196.462 14.1059L209.431 14.1061ZM209.93 14.6045L209.931 28.2121H223.573V14.6043L209.93 14.6045ZM224.072 14.6043V27.8899H237.714L237.715 14.6045L224.072 14.6043ZM237.715 14.1061V0.498382H224.073L224.072 14.1059L237.715 14.1061ZM238.214 14.6045L238.214 27.8899L238.214 28.2121H251.856V14.6043L238.214 14.6045ZM252.355 14.6043V27.8899H265.325L265.324 14.6045L252.355 14.6043ZM265.324 14.1061V0.498382H252.355L252.355 14.1059L265.324 14.1061ZM265.824 14.6045L265.825 28.2121H279.465V27.8899H279.467V14.6043L279.465 14.6045L265.824 14.6045ZM279.965 14.1059V0.498382H293.607V14.1061L279.965 14.1059ZM279.966 14.6045H293.608V27.8899H279.966V14.6045ZM279.965 28.7105H279.966V28.3883H293.607V41.996L279.965 41.9958V28.7105ZM279.465 28.7105H265.824V41.996L279.465 41.9958V28.7105ZM279.467 42.4942L279.465 42.4944L265.824 42.4944L265.825 56.102L279.467 56.1017V42.4942ZM279.965 56.6001L279.966 56.6003L293.607 56.6001V69.5362L279.965 69.536V56.6001ZM279.465 69.536V56.6003H265.824L265.824 69.5362L279.465 69.536ZM265.324 69.5362L265.325 56.6003H252.355V69.536L265.324 69.5362ZM252.355 70.0344L265.324 70.0346L265.325 83.6429L252.355 83.6422V70.0344ZM251.856 69.536V56.6003H238.214L238.214 69.5362L251.856 69.536ZM238.214 70.0346L251.856 70.0344V83.6422H238.214L238.214 70.0346ZM237.715 69.5362L237.714 56.6003H224.072V69.536L237.715 69.5362ZM224.072 70.0344L237.715 70.0346L237.714 83.6429L224.072 83.6422V70.0344ZM223.573 69.536V56.6003H209.931L209.93 69.5362L223.573 69.536ZM209.93 70.0346L223.573 70.0344V83.6422H209.931L209.93 70.0346ZM209.431 69.5362L209.431 56.6003H196.462V69.536L209.431 69.5362ZM196.462 70.0344L209.431 70.0346L209.431 83.6429H196.462V70.0344ZM195.963 69.536V56.6003H182.321L182.32 69.5362L195.963 69.536ZM182.32 70.0346L195.963 70.0344V83.6422H182.321L182.32 70.0346ZM181.821 69.5362L181.821 56.6003L168.179 56.6001V69.5362H181.821ZM168.179 70.0346H181.821L181.821 83.6422L168.179 83.6429V70.0346ZM167.68 69.5362V56.6001L154.711 56.6003L154.711 69.5362H167.68ZM154.711 70.0346H167.68V83.6429L154.711 83.6422L154.711 70.0346ZM154.212 69.5362L154.211 56.6003H140.569V69.536L154.212 69.5362ZM140.569 70.0344L154.212 70.0346L154.211 83.6422H140.569V70.0344ZM140.07 69.536V56.6003H126.427L126.427 69.5362L140.07 69.536ZM126.427 70.0346L140.07 70.0344V83.6422H126.427L126.427 70.0346ZM125.928 69.5362L125.928 56.6003H112.286V69.536L125.928 69.5362ZM112.286 70.0344L125.928 70.0346L125.928 83.6422H112.286V70.0344ZM111.786 69.536V56.6003H98.144L98.1437 69.5362L111.786 69.536ZM98.1437 70.0346L111.786 70.0344V83.6422H98.144L98.1437 70.0346ZM97.6444 69.5362L97.6448 56.6003H84.6757V69.536L97.6444 69.5362ZM84.6757 70.0344L97.6444 70.0346L97.6448 83.6422H84.6757V70.0344ZM84.1764 69.536V56.6003H70.5341L70.5343 69.5362L84.1764 69.536ZM70.5343 70.0346L84.1764 70.0344V83.6422H70.5341L70.5343 70.0346ZM70.035 69.5362L70.0348 56.6003H56.3919V69.536L70.035 69.5362ZM56.3919 70.0344L70.035 70.0346L70.0348 83.6422L56.3919 83.6429V70.0344ZM55.8926 69.536V56.6003H42.2502L42.2504 69.5362L55.8926 69.536ZM42.2504 70.0346L55.8926 70.0344V83.6422H42.2502L42.2504 70.0346ZM41.7511 69.5362L41.7509 56.6003H28.7824V69.536L41.7511 69.5362ZM28.7824 70.0344L41.7511 70.0346L41.7509 83.6422H28.7824V70.0344ZM28.2831 69.536V56.6003H14.6407L14.6409 69.5362L28.2831 69.536ZM14.6409 70.0346L28.2831 70.0344V83.6422H14.6407L14.6409 70.0346ZM14.1414 84.1406L0.499287 84.1413V97.7491L14.1414 97.7491V84.1406ZM14.6407 97.7491V84.1405H28.2831V97.7491H14.6407ZM14.6407 98.2475V111.855H28.2831V98.2475H14.6407ZM28.7824 98.2475V111.855H41.7509V98.2475H28.7824ZM42.2502 98.2475V111.855H55.8926V98.2475H42.2502ZM55.8926 97.7491H42.2502V84.1405H55.8933L55.8926 97.7491ZM56.3919 98.2475V111.855H70.0348V98.2475H56.3919ZM70.0348 97.7491H56.3919L56.3926 84.1413L70.0348 84.1406V97.7491ZM70.5341 98.2475V111.855H84.1764V98.2475H70.5341ZM84.1764 97.7491H70.5341V84.1405H84.1764V97.7491ZM84.6757 98.2475V111.855H97.6448V98.2475H84.6757ZM97.6448 97.7491H84.6757V84.1405H97.6448V97.7491ZM98.1441 98.2475V111.855H111.786V98.2475H98.1441ZM111.786 97.7491H98.1441V84.1405H111.786V97.7491ZM112.286 98.2475V111.855H125.928V98.2475H112.286ZM125.928 97.7491H112.286V84.1405H125.928V97.7491ZM126.427 98.2475V111.855H140.07V98.2475H126.427ZM140.07 97.7491H126.427V84.1405H140.07V97.7491ZM140.569 98.2475V111.855H154.211V98.2475H140.569ZM154.211 97.7491H140.569V84.1405H154.211V97.7491ZM154.711 98.2475V111.855L167.68 111.855V98.2474L154.711 98.2475ZM167.68 97.7491L154.711 97.7491V84.1406L167.68 84.1413V97.7491ZM168.179 98.2474V111.855L181.821 111.855V98.2475L168.179 98.2474ZM181.821 97.7491L168.179 97.7491V84.1413L181.821 84.1406V97.7491ZM182.321 98.2475V111.855H195.963V98.2475H182.321ZM195.963 97.7491H182.321V84.1405H195.962L195.963 97.7491ZM196.462 98.2475V111.855H209.431V98.2475H196.462ZM209.431 97.7491H196.462L196.462 84.1413H209.431L209.431 97.7491ZM209.931 98.2475V111.855H223.573V98.2475H209.931ZM223.573 97.7491H209.931L209.93 84.1405H223.573V97.7491ZM224.072 98.2475V111.855H237.714V98.2475H224.072ZM237.714 97.7491H224.072V84.1406L237.715 84.1413L237.714 97.7491ZM238.214 98.2475V111.855H251.856V98.2475H238.214ZM251.856 97.7491H238.214L238.214 84.1405H251.856V97.7491ZM252.355 98.2475V111.855H265.325V98.2475H252.355ZM265.325 97.7491H252.355V84.1406L265.324 84.1413L265.325 97.7491ZM265.825 98.2475V111.855H279.465L279.467 111.855V98.2475H265.825ZM279.465 97.7491H265.825L265.824 84.1405H279.465V97.7491ZM279.966 98.2474V111.855H293.608V98.2474H279.966ZM294.107 98.2475V111.855H307.75V98.2475H294.107ZM308.249 98.2475V111.855H321.891V98.2475H308.249ZM321.891 97.7491H308.249V84.1406L321.892 84.1413L321.891 97.7491ZM322.39 98.2475V111.855H335.359V98.2475H322.39ZM335.359 97.7491H322.39L322.391 84.1405H335.359V97.7491ZM335.858 97.7491L349.501 97.7491V84.1413L335.858 84.1406V97.7491ZM335.359 83.6422L335.359 70.0346H322.391L322.39 83.6422H335.359ZM321.891 83.6429L321.892 70.0346L308.249 70.0344V83.6422L321.891 83.6429ZM307.75 83.6422V70.0344H294.107V83.6422H307.75ZM293.608 83.6429V70.0346H279.966V83.6429H293.608ZM279.965 84.1413V97.7491H293.607V84.1413H279.965ZM294.106 84.1405V97.7491H307.75V84.1405H294.106ZM279.467 83.6422V70.0344L279.465 70.0346H265.824L265.825 83.6422H279.467ZM294.106 69.536H307.75V56.6003H294.106V69.536ZM294.107 56.102H307.75V42.4942H294.107V56.102ZM294.106 41.9958H307.75L307.75 28.7105H294.106V41.9958ZM294.107 28.2121H307.75V14.6043H294.107V28.2121ZM308.249 14.6043V27.8899H321.891L321.892 14.6045L308.249 14.6043ZM321.892 14.1061V0.498382H308.249L308.249 14.1059L321.892 14.1061ZM322.391 14.6045L322.39 27.8899L322.391 28.2121H335.359L335.359 28.1391V14.6045H322.391ZM335.858 28.3883L335.858 41.996H349.501V28.3883H335.858ZM335.359 41.996V28.7105H322.391V41.996H335.359ZM321.892 41.996V28.7105L321.891 28.3883H308.249L308.249 28.4613V41.9958L321.892 41.996ZM308.249 42.4942L321.892 42.4944L321.891 56.102H308.249V42.4942ZM308.249 56.6003V69.536L321.892 69.5362L321.891 56.6003H308.249ZM322.39 56.6003L322.391 69.5362H335.359L335.359 56.6003H322.39ZM335.359 56.102L335.359 42.4944H322.391L322.39 56.102H335.359ZM335.858 56.6003L335.858 69.5362H349.501V56.6001L335.858 56.6003ZM293.608 42.4944V56.1017H279.966V42.4944H293.608ZM335.359 112.354H322.39V125.289H335.359V112.354ZM335.858 125.289L349.501 125.289V112.353L335.858 112.354V125.289ZM335.359 125.787H322.39V139.395H335.359V125.787ZM321.891 139.395V125.787H308.249V139.395H321.891ZM308.249 139.894L308.249 153.502H321.892L321.891 139.894H308.249ZM307.75 139.395V125.787H294.107V139.395H307.75ZM293.608 139.395V125.788H279.966V139.395H293.608ZM279.965 139.894V153.502H293.607V139.894H279.965ZM279.467 139.395V125.787L279.465 125.788L265.825 125.787V139.395H279.467ZM265.325 139.395V125.787H252.355V139.395H265.325ZM252.355 139.894L252.355 153.502H265.324L265.325 139.894H252.355ZM251.856 139.395V125.787H238.214V139.395H251.856ZM237.714 139.395V125.787H224.072V139.395H237.714ZM224.072 139.894L224.073 153.502H237.715L237.714 139.894H224.072ZM223.573 139.395V125.787H209.931V139.395H223.573ZM209.431 139.395V125.787H196.462V139.395H209.431ZM196.462 139.894L196.462 153.502H209.431L209.431 139.894H196.462ZM195.963 139.395V125.787H182.321V139.395H195.963ZM181.821 139.395V125.787L168.179 125.788V139.395L181.821 139.395ZM168.179 139.894V153.502H181.821L181.821 139.894L168.179 139.894ZM167.68 139.395V125.788L154.711 125.787V139.395L167.68 139.395ZM154.211 139.395V125.787H140.569V139.395H154.211ZM140.569 139.894L140.569 153.502H154.212L154.211 139.894H140.569ZM140.07 139.395V125.787H126.427V139.395H140.07ZM125.928 139.395V125.787H112.286V139.395H125.928ZM112.286 139.894L112.285 153.502H125.928L125.928 139.894H112.286ZM111.786 139.395V125.787H98.1441V139.395H111.786ZM97.6448 139.395V125.787H84.6757V139.395H97.6448ZM84.6757 139.894L84.6755 153.502H97.6444L97.6448 139.894H84.6757ZM84.1764 139.395V125.787H70.5341V139.395H84.1764ZM70.0348 139.395V125.787H56.3919V139.395H70.0348ZM56.3919 139.894L56.3926 153.502H70.035L70.0348 139.894H56.3919ZM55.8926 139.395V125.787H42.2502V139.395H55.8926ZM41.7509 139.395V125.787H28.7824V139.395H41.7509ZM28.7824 139.894L28.7821 153.502H41.7511L41.7509 139.894H28.7824ZM28.2831 139.395V125.787H14.6407V139.395H28.2831ZM14.6407 125.289H28.2831V112.354H14.6407V125.289ZM14.1414 112.354L0.499287 112.353V125.289L14.1414 125.289V112.354ZM28.7824 112.354V125.289H41.7509V112.354H28.7824ZM42.2502 112.354V125.289H55.8926V112.354H42.2502ZM56.3919 112.354V125.289H70.0348V112.354H56.3919ZM70.5341 112.354V125.289H84.1764V112.354H70.5341ZM84.6757 112.354V125.289H97.6448V112.354H84.6757ZM98.1441 112.354V125.289H111.786V112.354H98.1441ZM112.286 112.354V125.289H125.928V112.354H112.286ZM126.427 112.354V125.289H140.07V112.354H126.427ZM140.569 112.354V125.289H154.211V112.354H140.569ZM154.711 112.354V125.289L167.68 125.289V112.353L154.711 112.354ZM168.179 112.353V125.289L181.821 125.289V112.354L168.179 112.353ZM182.321 112.354V125.289H195.963V112.354H182.321ZM196.462 112.354V125.289H209.431V112.354H196.462ZM209.931 112.354V125.289H223.573V112.354H209.931ZM224.072 112.354V125.289H237.714V112.354H224.072ZM238.214 112.354V125.289H251.856V112.354H238.214ZM252.355 112.354V125.289H265.325V112.354H252.355ZM265.825 112.354V125.289H279.465V112.354H265.825ZM279.965 112.354V125.289L293.607 125.289V112.353H279.966L279.965 112.354ZM294.106 112.354V125.289H307.75V112.354H294.106ZM308.249 112.354V125.289H321.891V112.354H308.249ZM41.7509 84.1405V97.7491H28.7824V84.1405H41.7509ZM14.1416 69.5362L14.1414 56.6003L0.499287 56.6001V69.5362H14.1416ZM14.6407 56.102H28.2831V42.4942L14.6409 42.4944L14.6407 56.102ZM14.6409 41.996L28.2831 41.9958L28.2829 28.7105H14.6409V41.996ZM14.1414 28.3883L14.1414 28.7105L14.1417 41.996H0.499287V28.3883H14.1414ZM28.7822 28.7105L28.7824 41.9958L41.7511 41.996V28.7105L41.7509 28.3883H28.7824L28.7822 28.7105ZM42.2504 28.7105V41.996L55.8926 41.9958L55.8933 28.7105H42.2504ZM56.3926 28.3883L56.3919 41.9958L70.035 41.996V28.7105L70.0348 28.3883H56.3926ZM70.5343 28.7105V41.996L84.1764 41.9958L84.1762 28.7105H70.5343ZM84.6755 28.7105L84.6757 41.9958L97.6444 41.996V28.3883H84.6757L84.6755 28.7105ZM98.1437 28.7105V41.996L111.786 41.9958L111.786 28.7105H98.1437ZM112.285 28.7105L112.286 41.9958L125.928 41.996V28.3883H112.286L112.285 28.7105ZM126.427 28.7105V41.996L140.07 41.9958L140.07 28.7105H126.427ZM140.569 28.3883L140.569 41.9958L154.212 41.996V28.7105L154.211 28.3883H140.569ZM154.711 28.7105V41.996H167.68V28.7105H154.711ZM168.179 28.7105V41.996H181.821V28.3883H168.179L168.179 28.7105ZM182.32 28.7105V41.996L195.963 41.9958L195.962 28.7105H182.32ZM196.462 28.7105L196.462 41.9958L209.431 41.996V28.3883H196.462L196.462 28.7105ZM209.93 28.7105V41.996L223.573 41.9958L223.573 28.7105H209.93ZM224.073 28.3883L224.072 41.9958L237.715 41.996V28.7105L237.714 28.3883H224.073ZM238.214 28.7105V41.996L251.856 41.9958L251.856 28.7105H238.214ZM252.355 28.3883L252.355 41.9958L265.324 41.996V28.3883H252.355ZM265.324 42.4944L252.355 42.4942V56.102H265.325L265.324 42.4944ZM251.856 56.102V42.4942L238.214 42.4944L238.214 56.102H251.856ZM237.714 56.102L237.715 42.4944L224.072 42.4942V56.102H237.714ZM223.573 56.102V42.4942L209.93 42.4944L209.931 56.102H223.573ZM209.431 56.102L209.431 42.4944L196.462 42.4942V56.102H209.431ZM195.963 56.102V42.4942L182.32 42.4944L182.321 56.102H195.963ZM181.821 56.102L181.821 42.4944H168.179V56.1018L181.821 56.102ZM167.68 56.1018V42.4944H154.711L154.711 56.102L167.68 56.1018ZM154.211 56.102L154.212 42.4944L140.569 42.4942V56.102H154.211ZM140.07 56.102V42.4942L126.427 42.4944L126.427 56.102H140.07ZM125.928 56.102L125.928 42.4944L112.286 42.4942V56.102H125.928ZM111.786 56.102V42.4942L98.1437 42.4944L98.144 56.102H111.786ZM97.6448 56.102L97.6444 42.4944L84.6757 42.4942V56.102H97.6448ZM84.1764 56.102V42.4942L70.5343 42.4944L70.5341 56.102H84.1764ZM70.0348 56.102L70.035 42.4944L56.3919 42.4942V56.102H70.0348ZM55.8926 56.102V42.4942L42.2504 42.4944L42.2502 56.102H55.8926ZM41.7509 56.102L41.7511 42.4944L28.7824 42.4942V56.102H41.7509ZM14.1414 139.894L0.499287 139.894V153.502H14.1416L14.1414 139.894ZM335.858 139.894L335.858 153.502H349.501V139.894L335.858 139.894ZM335.858 14.1061H349.501V0.498382H335.858V14.1061Z" fill="#FFAC7C"/>
<defs>
<filter id="filter0_b_1119_4" x="-4" y="-4" width="358" height="162" filterUnits="userSpaceOnUse" color-interpolation-filters="sRGB">
<feFlood flood-opacity="0" result="BackgroundImageFix"/>
<feGaussianBlur in="BackgroundImageFix" stdDeviation="2"/>
<feComposite in2="SourceAlpha" operator="in" result="effect1_backgroundBlur_1119_4"/>
<feBlend mode="normal" in="SourceGraphic" in2="effect1_backgroundBlur_1119_4" result="shape"/>
</filter>
</defs>
</svg>
