<svg width="1802" height="361" viewBox="0 0 1802 361" fill="none" xmlns="http://www.w3.org/2000/svg">
<g filter="url(#filter0_b_1119_3)">
<rect width="1802" height="362" fill="#FF5E00"/>
</g>
<rect x="1" y="1" width="39.993" height="40" stroke="#FFAC7C"/>
<rect x="40.9922" y="41" width="39.993" height="40" stroke="#FFAC7C"/>
<rect x="1" y="81" width="39.993" height="40" stroke="#FFAC7C"/>
<rect x="40.9922" y="121" width="39.993" height="40" stroke="#FFAC7C"/>
<rect x="40.9922" y="201" width="39.993" height="40" stroke="#FFAC7C"/>
<rect x="40.9922" y="281" width="39.993" height="40" stroke="#FFAC7C"/>
<rect x="1" y="161" width="39.993" height="40" stroke="#FFAC7C"/>
<rect x="1" y="241" width="39.993" height="40" stroke="#FFAC7C"/>
<rect x="1" y="321" width="39.993" height="40" stroke="#FFAC7C"/>
<rect x="80.9863" y="1" width="39.993" height="40" stroke="#FFAC7C"/>
<rect x="120.979" y="41" width="39.993" height="40" stroke="#FFAC7C"/>
<rect x="80.9863" y="81" width="39.993" height="40" stroke="#FFAC7C"/>
<rect x="120.979" y="121" width="39.993" height="40" stroke="#FFAC7C"/>
<rect x="120.979" y="201" width="39.993" height="40" stroke="#FFAC7C"/>
<rect x="120.979" y="281" width="39.993" height="40" stroke="#FFAC7C"/>
<rect x="80.9863" y="161" width="39.993" height="40" stroke="#FFAC7C"/>
<rect x="80.9863" y="241" width="39.993" height="40" stroke="#FFAC7C"/>
<rect x="80.9863" y="321" width="39.993" height="40" stroke="#FFAC7C"/>
<rect x="160.973" y="1" width="39.993" height="40" stroke="#FFAC7C"/>
<rect x="200.965" y="41" width="39.993" height="40" stroke="#FFAC7C"/>
<rect x="160.973" y="81" width="39.993" height="40" stroke="#FFAC7C"/>
<rect x="200.965" y="121" width="39.993" height="40" stroke="#FFAC7C"/>
<rect x="200.965" y="201" width="39.993" height="40" stroke="#FFAC7C"/>
<rect x="200.965" y="281" width="39.993" height="40" stroke="#FFAC7C"/>
<rect x="160.973" y="161" width="39.993" height="40" stroke="#FFAC7C"/>
<rect x="160.973" y="241" width="39.993" height="40" stroke="#FFAC7C"/>
<rect x="160.973" y="321" width="39.993" height="40" stroke="#FFAC7C"/>
<rect x="240.959" y="1" width="39.993" height="40" stroke="#FFAC7C"/>
<rect x="280.951" y="41" width="39.993" height="40" stroke="#FFAC7C"/>
<rect x="240.959" y="81" width="39.993" height="40" stroke="#FFAC7C"/>
<rect x="280.951" y="121" width="39.993" height="40" stroke="#FFAC7C"/>
<rect x="280.951" y="201" width="39.993" height="40" stroke="#FFAC7C"/>
<rect x="280.951" y="281" width="39.993" height="40" stroke="#FFAC7C"/>
<rect x="240.957" y="161" width="39.993" height="40" stroke="#FFAC7C"/>
<rect x="240.957" y="241" width="39.993" height="40" stroke="#FFAC7C"/>
<rect x="240.957" y="321" width="39.993" height="40" stroke="#FFAC7C"/>
<rect x="320.943" y="1" width="39.993" height="40" stroke="#FFAC7C"/>
<rect x="360.938" y="41" width="39.993" height="40" stroke="#FFAC7C"/>
<rect x="320.943" y="81" width="39.993" height="40" stroke="#FFAC7C"/>
<rect x="360.938" y="121" width="39.993" height="40" stroke="#FFAC7C"/>
<rect x="360.938" y="201" width="39.993" height="40" stroke="#FFAC7C"/>
<rect x="360.938" y="281" width="39.993" height="40" stroke="#FFAC7C"/>
<rect x="320.943" y="161" width="39.993" height="40" stroke="#FFAC7C"/>
<rect x="320.943" y="241" width="39.993" height="40" stroke="#FFAC7C"/>
<rect x="320.943" y="321" width="39.993" height="40" stroke="#FFAC7C"/>
<rect x="400.93" y="1" width="39.993" height="40" stroke="#FFAC7C"/>
<rect x="440.924" y="41" width="39.993" height="40" stroke="#FFAC7C"/>
<rect x="400.93" y="81" width="39.993" height="40" stroke="#FFAC7C"/>
<rect x="440.924" y="121" width="39.993" height="40" stroke="#FFAC7C"/>
<rect x="440.924" y="201" width="39.993" height="40" stroke="#FFAC7C"/>
<rect x="440.924" y="281" width="39.993" height="40" stroke="#FFAC7C"/>
<rect x="400.93" y="161" width="39.993" height="40" stroke="#FFAC7C"/>
<rect x="400.93" y="241" width="39.993" height="40" stroke="#FFAC7C"/>
<rect x="400.93" y="321" width="39.993" height="40" stroke="#FFAC7C"/>
<rect x="480.916" y="1" width="39.993" height="40" stroke="#FFAC7C"/>
<rect x="520.91" y="41" width="39.993" height="40" stroke="#FFAC7C"/>
<rect x="480.916" y="81" width="39.993" height="40" stroke="#FFAC7C"/>
<rect x="520.91" y="121" width="39.993" height="40" stroke="#FFAC7C"/>
<rect x="520.91" y="201" width="39.993" height="40" stroke="#FFAC7C"/>
<rect x="520.91" y="281" width="39.993" height="40" stroke="#FFAC7C"/>
<rect x="480.916" y="161" width="39.993" height="40" stroke="#FFAC7C"/>
<rect x="480.916" y="241" width="39.993" height="40" stroke="#FFAC7C"/>
<rect x="480.916" y="321" width="39.993" height="40" stroke="#FFAC7C"/>
<rect x="560.902" y="1" width="39.993" height="40" stroke="#FFAC7C"/>
<rect x="600.895" y="41" width="39.993" height="40" stroke="#FFAC7C"/>
<rect x="560.902" y="81" width="39.993" height="40" stroke="#FFAC7C"/>
<rect x="600.895" y="121" width="39.993" height="40" stroke="#FFAC7C"/>
<rect x="600.895" y="201" width="39.993" height="40" stroke="#FFAC7C"/>
<rect x="600.895" y="281" width="39.993" height="40" stroke="#FFAC7C"/>
<rect x="560.902" y="161" width="39.993" height="40" stroke="#FFAC7C"/>
<rect x="560.902" y="241" width="39.993" height="40" stroke="#FFAC7C"/>
<rect x="560.902" y="321" width="39.993" height="40" stroke="#FFAC7C"/>
<rect x="640.889" y="1" width="39.993" height="40" stroke="#FFAC7C"/>
<rect x="680.883" y="41" width="39.993" height="40" stroke="#FFAC7C"/>
<rect x="640.889" y="81" width="39.993" height="40" stroke="#FFAC7C"/>
<rect x="680.883" y="121" width="39.993" height="40" stroke="#FFAC7C"/>
<rect x="680.883" y="201" width="39.993" height="40" stroke="#FFAC7C"/>
<rect x="680.883" y="281" width="39.993" height="40" stroke="#FFAC7C"/>
<rect x="640.889" y="161" width="39.993" height="40" stroke="#FFAC7C"/>
<rect x="640.889" y="241" width="39.993" height="40" stroke="#FFAC7C"/>
<rect x="640.889" y="321" width="39.993" height="40" stroke="#FFAC7C"/>
<rect x="720.875" y="1" width="39.993" height="40" stroke="#FFAC7C"/>
<rect x="760.867" y="41" width="39.993" height="40" stroke="#FFAC7C"/>
<rect x="720.875" y="81" width="39.993" height="40" stroke="#FFAC7C"/>
<rect x="760.867" y="121" width="39.993" height="40" stroke="#FFAC7C"/>
<rect x="760.867" y="201" width="39.993" height="40" stroke="#FFAC7C"/>
<rect x="760.867" y="281" width="39.993" height="40" stroke="#FFAC7C"/>
<rect x="720.875" y="161" width="39.993" height="40" stroke="#FFAC7C"/>
<rect x="720.875" y="241" width="39.993" height="40" stroke="#FFAC7C"/>
<rect x="720.875" y="321" width="39.993" height="40" stroke="#FFAC7C"/>
<rect x="800.859" y="1" width="39.993" height="40" stroke="#FFAC7C"/>
<rect x="840.854" y="41" width="39.993" height="40" stroke="#FFAC7C"/>
<rect x="800.859" y="81" width="39.993" height="40" stroke="#FFAC7C"/>
<rect x="840.854" y="121" width="39.993" height="40" stroke="#FFAC7C"/>
<rect x="840.854" y="201" width="39.993" height="40" stroke="#FFAC7C"/>
<rect x="840.854" y="281" width="39.993" height="40" stroke="#FFAC7C"/>
<rect x="800.859" y="161" width="39.993" height="40" stroke="#FFAC7C"/>
<rect x="800.859" y="241" width="39.993" height="40" stroke="#FFAC7C"/>
<rect x="800.859" y="321" width="39.993" height="40" stroke="#FFAC7C"/>
<rect x="880.848" y="1" width="39.993" height="40" stroke="#FFAC7C"/>
<rect x="920.84" y="41" width="39.993" height="40" stroke="#FFAC7C"/>
<rect x="880.848" y="81" width="39.993" height="40" stroke="#FFAC7C"/>
<rect x="920.84" y="121" width="39.993" height="40" stroke="#FFAC7C"/>
<rect x="920.84" y="201" width="39.993" height="40" stroke="#FFAC7C"/>
<rect x="920.84" y="281" width="39.993" height="40" stroke="#FFAC7C"/>
<rect x="880.848" y="161" width="39.993" height="40" stroke="#FFAC7C"/>
<rect x="880.848" y="241" width="39.993" height="40" stroke="#FFAC7C"/>
<rect x="880.848" y="321" width="39.993" height="40" stroke="#FFAC7C"/>
<rect x="960.832" y="1" width="39.993" height="40" stroke="#FFAC7C"/>
<rect x="1000.83" y="41" width="39.993" height="40" stroke="#FFAC7C"/>
<rect x="960.832" y="81" width="39.993" height="40" stroke="#FFAC7C"/>
<rect x="1000.83" y="121" width="39.993" height="40" stroke="#FFAC7C"/>
<rect x="1000.83" y="201" width="39.993" height="40" stroke="#FFAC7C"/>
<rect x="1000.83" y="281" width="39.993" height="40" stroke="#FFAC7C"/>
<rect x="960.832" y="161" width="39.993" height="40" stroke="#FFAC7C"/>
<rect x="960.832" y="241" width="39.993" height="40" stroke="#FFAC7C"/>
<rect x="960.832" y="321" width="39.993" height="40" stroke="#FFAC7C"/>
<rect x="1040.82" y="1" width="39.993" height="40" stroke="#FFAC7C"/>
<rect x="1080.81" y="41" width="39.993" height="40" stroke="#FFAC7C"/>
<rect x="1040.82" y="81" width="39.993" height="40" stroke="#FFAC7C"/>
<rect x="1080.81" y="121" width="39.993" height="40" stroke="#FFAC7C"/>
<rect x="1080.81" y="201" width="39.993" height="40" stroke="#FFAC7C"/>
<rect x="1080.81" y="281" width="39.993" height="40" stroke="#FFAC7C"/>
<rect x="1040.82" y="161" width="39.993" height="40" stroke="#FFAC7C"/>
<rect x="1040.82" y="241" width="39.993" height="40" stroke="#FFAC7C"/>
<rect x="1040.82" y="321" width="39.993" height="40" stroke="#FFAC7C"/>
<rect x="1120.8" y="1" width="39.993" height="40" stroke="#FFAC7C"/>
<rect x="1160.8" y="41" width="39.993" height="40" stroke="#FFAC7C"/>
<rect x="1120.8" y="81" width="39.993" height="40" stroke="#FFAC7C"/>
<rect x="1160.8" y="121" width="39.993" height="40" stroke="#FFAC7C"/>
<rect x="1160.8" y="201" width="39.993" height="40" stroke="#FFAC7C"/>
<rect x="1160.8" y="281" width="39.993" height="40" stroke="#FFAC7C"/>
<rect x="1120.8" y="161" width="39.993" height="40" stroke="#FFAC7C"/>
<rect x="1120.8" y="241" width="39.993" height="40" stroke="#FFAC7C"/>
<rect x="1120.8" y="321" width="39.993" height="40" stroke="#FFAC7C"/>
<rect x="1200.79" y="1" width="39.993" height="40" stroke="#FFAC7C"/>
<rect x="1240.78" y="41" width="39.993" height="40" stroke="#FFAC7C"/>
<rect x="1200.79" y="81" width="39.993" height="40" stroke="#FFAC7C"/>
<rect x="1240.78" y="121" width="39.993" height="40" stroke="#FFAC7C"/>
<rect x="1240.78" y="201" width="39.993" height="40" stroke="#FFAC7C"/>
<rect x="1240.78" y="281" width="39.993" height="40" stroke="#FFAC7C"/>
<rect x="1200.79" y="161" width="39.993" height="40" stroke="#FFAC7C"/>
<rect x="1200.79" y="241" width="39.993" height="40" stroke="#FFAC7C"/>
<rect x="1200.79" y="321" width="39.993" height="40" stroke="#FFAC7C"/>
<rect x="1280.78" y="1" width="39.993" height="40" stroke="#FFAC7C"/>
<rect x="1320.77" y="41" width="39.993" height="40" stroke="#FFAC7C"/>
<rect x="1280.78" y="81" width="39.993" height="40" stroke="#FFAC7C"/>
<rect x="1320.77" y="121" width="39.993" height="40" stroke="#FFAC7C"/>
<rect x="1320.77" y="201" width="39.993" height="40" stroke="#FFAC7C"/>
<rect x="1320.77" y="281" width="39.993" height="40" stroke="#FFAC7C"/>
<rect x="1280.78" y="161" width="39.993" height="40" stroke="#FFAC7C"/>
<rect x="1280.78" y="241" width="39.993" height="40" stroke="#FFAC7C"/>
<rect x="1280.78" y="321" width="39.993" height="40" stroke="#FFAC7C"/>
<rect x="1360.76" y="1" width="39.993" height="40" stroke="#FFAC7C"/>
<rect x="1400.76" y="41" width="39.993" height="40" stroke="#FFAC7C"/>
<rect x="1360.76" y="81" width="39.993" height="40" stroke="#FFAC7C"/>
<rect x="1400.76" y="121" width="39.993" height="40" stroke="#FFAC7C"/>
<rect x="1400.76" y="201" width="39.993" height="40" stroke="#FFAC7C"/>
<rect x="1400.76" y="281" width="39.993" height="40" stroke="#FFAC7C"/>
<rect x="1360.76" y="161" width="39.993" height="40" stroke="#FFAC7C"/>
<rect x="1360.76" y="241" width="39.993" height="40" stroke="#FFAC7C"/>
<rect x="1360.76" y="321" width="39.993" height="40" stroke="#FFAC7C"/>
<rect x="1440.75" y="1" width="39.993" height="40" stroke="#FFAC7C"/>
<rect x="1480.74" y="41" width="39.993" height="40" stroke="#FFAC7C"/>
<rect x="1440.75" y="81" width="39.993" height="40" stroke="#FFAC7C"/>
<rect x="1480.74" y="121" width="39.993" height="40" stroke="#FFAC7C"/>
<rect x="1480.74" y="201" width="39.993" height="40" stroke="#FFAC7C"/>
<rect x="1480.74" y="281" width="39.993" height="40" stroke="#FFAC7C"/>
<rect x="1440.75" y="161" width="39.993" height="40" stroke="#FFAC7C"/>
<rect x="1440.75" y="241" width="39.993" height="40" stroke="#FFAC7C"/>
<rect x="1440.75" y="321" width="39.993" height="40" stroke="#FFAC7C"/>
<rect x="1520.73" y="1" width="39.993" height="40" stroke="#FFAC7C"/>
<rect x="1560.73" y="41" width="39.993" height="40" stroke="#FFAC7C"/>
<rect x="1640.71" y="41" width="39.993" height="40" stroke="#FFAC7C"/>
<rect x="1721.01" y="41" width="39.993" height="40" stroke="#FFAC7C"/>
<rect x="1520.73" y="81" width="39.993" height="40" stroke="#FFAC7C"/>
<rect x="1560.73" y="121" width="39.993" height="40" stroke="#FFAC7C"/>
<rect x="1560.73" y="201" width="39.993" height="40" stroke="#FFAC7C"/>
<rect x="1560.73" y="281" width="39.993" height="40" stroke="#FFAC7C"/>
<rect x="1640.71" y="121" width="39.993" height="40" stroke="#FFAC7C"/>
<rect x="1640.71" y="201" width="39.993" height="40" stroke="#FFAC7C"/>
<rect x="1640.71" y="281" width="39.993" height="40" stroke="#FFAC7C"/>
<rect x="1721.01" y="121" width="39.993" height="40" stroke="#FFAC7C"/>
<rect x="1721.01" y="201" width="39.993" height="40" stroke="#FFAC7C"/>
<rect x="1721.01" y="281" width="39.993" height="40" stroke="#FFAC7C"/>
<rect x="1520.73" y="161" width="39.993" height="40" stroke="#FFAC7C"/>
<rect x="1520.73" y="241" width="39.993" height="40" stroke="#FFAC7C"/>
<rect x="1520.73" y="321" width="39.993" height="40" stroke="#FFAC7C"/>
<rect x="1600.72" y="1" width="39.993" height="40" stroke="#FFAC7C"/>
<rect x="1680.71" y="1" width="39.993" height="40" stroke="#FFAC7C"/>
<rect x="1761.01" y="1" width="39.993" height="40" stroke="#FFAC7C"/>
<rect x="1600.72" y="81" width="39.993" height="40" stroke="#FFAC7C"/>
<rect x="1680.71" y="81" width="39.993" height="40" stroke="#FFAC7C"/>
<rect x="1761.01" y="81" width="39.993" height="40" stroke="#FFAC7C"/>
<rect x="1600.72" y="161" width="39.993" height="40" stroke="#FFAC7C"/>
<rect x="1600.72" y="241" width="39.993" height="40" stroke="#FFAC7C"/>
<rect x="1600.72" y="321" width="39.993" height="40" stroke="#FFAC7C"/>
<rect x="1680.71" y="161" width="39.993" height="40" stroke="#FFAC7C"/>
<rect x="1680.71" y="241" width="39.993" height="40" stroke="#FFAC7C"/>
<rect x="1680.71" y="321" width="39.993" height="40" stroke="#FFAC7C"/>
<rect x="1761.01" y="161" width="39.993" height="40" stroke="#FFAC7C"/>
<rect x="1761.01" y="241" width="39.993" height="40" stroke="#FFAC7C"/>
<rect x="1761.01" y="321" width="39.993" height="40" stroke="#FFAC7C"/>
<defs>
<filter id="filter0_b_1119_3" x="-4" y="-4" width="1810" height="370" filterUnits="userSpaceOnUse" color-interpolation-filters="sRGB">
<feFlood flood-opacity="0" result="BackgroundImageFix"/>
<feGaussianBlur in="BackgroundImageFix" stdDeviation="2"/>
<feComposite in2="SourceAlpha" operator="in" result="effect1_backgroundBlur_1119_3"/>
<feBlend mode="normal" in="SourceGraphic" in2="effect1_backgroundBlur_1119_3" result="shape"/>
</filter>
</defs>
</svg>
