<svg width="350" height="154" viewBox="0 0 350 154" fill="none" xmlns="http://www.w3.org/2000/svg">
<rect y="27.9805" width="14.1618" height="14.1519" fill="#301E14"/>
<rect width="14.1618" height="14.1519" fill="#301E14"/>
<rect x="167.919" y="27.9805" width="14.1618" height="14.1519" fill="#301E14"/>
<rect x="167.919" width="14.1618" height="14.1519" fill="#301E14"/>
<rect x="14.1616" y="42.1323" width="14.1618" height="14.1519" fill="#301E14"/>
<rect x="14.1616" y="14.1519" width="14.1618" height="14.1519" fill="#301E14"/>
<rect x="182.081" y="42.1323" width="14.1618" height="14.1519" fill="#301E14"/>
<rect x="182.081" y="14.1519" width="14.1618" height="14.1519" fill="#301E14"/>
<rect y="56.2837" width="14.1618" height="13.478" fill="#301E14"/>
<rect x="167.919" y="56.2837" width="14.1618" height="13.478" fill="#301E14"/>
<rect x="14.1616" y="69.7617" width="14.1618" height="14.1519" fill="#301E14"/>
<rect x="182.081" y="69.7617" width="14.1618" height="14.1519" fill="#301E14"/>
<rect x="14.1616" y="98.0664" width="14.1618" height="14.1519" fill="#301E14"/>
<rect x="182.081" y="98.0664" width="14.1618" height="14.1519" fill="#301E14"/>
<rect x="14.1616" y="125.696" width="14.1618" height="14.1519" fill="#301E14"/>
<rect x="182.081" y="125.696" width="14.1618" height="14.1519" fill="#301E14"/>
<rect y="83.9146" width="14.1618" height="14.1519" fill="#301E14"/>
<rect x="167.919" y="83.9146" width="14.1618" height="14.1519" fill="#301E14"/>
<rect y="112.218" width="14.1618" height="13.478" fill="#301E14"/>
<rect x="167.919" y="112.218" width="14.1618" height="13.478" fill="#301E14"/>
<rect y="139.848" width="14.1618" height="14.1519" fill="#301E14"/>
<rect x="167.919" y="139.848" width="14.1618" height="14.1519" fill="#301E14"/>
<rect x="28.3232" y="27.9805" width="13.4875" height="14.1519" fill="#301E14"/>
<rect x="28.3232" width="13.4875" height="14.1519" fill="#301E14"/>
<rect x="196.242" y="27.9805" width="13.4875" height="14.1519" fill="#301E14"/>
<rect x="196.242" width="13.4875" height="14.1519" fill="#301E14"/>
<rect x="41.8105" y="42.1323" width="14.1618" height="14.1519" fill="#301E14"/>
<rect x="41.8105" y="14.1519" width="14.1618" height="14.1519" fill="#301E14"/>
<rect x="209.73" y="42.1323" width="14.1618" height="14.1519" fill="#301E14"/>
<rect x="209.73" y="14.1519" width="14.1618" height="14.1519" fill="#301E14"/>
<rect x="28.3232" y="56.2837" width="13.4875" height="13.478" fill="#301E14"/>
<rect x="196.242" y="56.2837" width="13.4875" height="13.478" fill="#301E14"/>
<rect x="41.8105" y="69.7617" width="14.1618" height="14.1519" fill="#301E14"/>
<rect x="209.73" y="69.7617" width="14.1618" height="14.1519" fill="#301E14"/>
<rect x="41.8105" y="98.0664" width="14.1618" height="14.1519" fill="#301E14"/>
<rect x="209.73" y="98.0664" width="14.1618" height="14.1519" fill="#301E14"/>
<rect x="41.8105" y="125.696" width="14.1618" height="14.1519" fill="#301E14"/>
<rect x="209.73" y="125.696" width="14.1618" height="14.1519" fill="#301E14"/>
<rect x="28.3232" y="83.9146" width="13.4875" height="14.1519" fill="#301E14"/>
<rect x="196.242" y="83.9146" width="13.4875" height="14.1519" fill="#301E14"/>
<rect x="28.3232" y="112.218" width="13.4875" height="13.478" fill="#301E14"/>
<rect x="196.242" y="112.218" width="13.4875" height="13.478" fill="#301E14"/>
<rect x="28.3232" y="139.848" width="13.4875" height="14.1519" fill="#301E14"/>
<rect x="196.242" y="139.848" width="13.4875" height="14.1519" fill="#301E14"/>
<rect x="55.9731" y="27.9805" width="14.1618" height="14.1519" fill="#301E14"/>
<rect x="55.9731" width="14.1618" height="14.1519" fill="#301E14"/>
<rect x="223.893" y="27.9805" width="14.1618" height="14.1519" fill="#301E14"/>
<rect x="223.893" width="14.1618" height="14.1519" fill="#301E14"/>
<rect x="70.1348" y="42.1323" width="14.1618" height="14.1519" fill="#301E14"/>
<rect x="70.1348" y="14.1519" width="14.1618" height="14.1519" fill="#301E14"/>
<rect x="238.054" y="42.1323" width="14.1618" height="14.1519" fill="#301E14"/>
<rect x="238.054" y="14.1519" width="14.1618" height="14.1519" fill="#301E14"/>
<rect x="55.9731" y="56.2837" width="14.1618" height="13.478" fill="#301E14"/>
<rect x="223.893" y="56.2837" width="14.1618" height="13.478" fill="#301E14"/>
<rect x="70.1348" y="69.7617" width="14.1618" height="14.1519" fill="#301E14"/>
<rect x="238.054" y="69.7617" width="14.1618" height="14.1519" fill="#301E14"/>
<rect x="70.1348" y="98.0664" width="14.1618" height="14.1519" fill="#301E14"/>
<rect x="238.054" y="98.0664" width="14.1618" height="14.1519" fill="#301E14"/>
<rect x="70.1348" y="125.696" width="14.1618" height="14.1519" fill="#301E14"/>
<rect x="238.054" y="125.696" width="14.1618" height="14.1519" fill="#301E14"/>
<rect x="55.9731" y="83.9146" width="14.1618" height="14.1519" fill="#301E14"/>
<rect x="223.893" y="83.9146" width="14.1618" height="14.1519" fill="#301E14"/>
<rect x="55.9731" y="112.218" width="14.1618" height="13.478" fill="#301E14"/>
<rect x="223.893" y="112.218" width="14.1618" height="13.478" fill="#301E14"/>
<rect x="55.9731" y="139.848" width="14.1618" height="14.1519" fill="#301E14"/>
<rect x="223.893" y="139.848" width="14.1618" height="14.1519" fill="#301E14"/>
<rect x="84.2964" y="27.9805" width="13.4875" height="14.1519" fill="#301E14"/>
<rect x="84.2964" width="13.4875" height="14.1519" fill="#301E14"/>
<rect x="252.216" y="27.9805" width="13.4875" height="14.1519" fill="#301E14"/>
<rect x="252.216" width="13.4875" height="14.1519" fill="#301E14"/>
<rect x="97.7842" y="42.1323" width="14.1618" height="14.1519" fill="#301E14"/>
<rect x="97.7842" y="14.1519" width="14.1618" height="14.1519" fill="#301E14"/>
<rect x="265.704" y="42.1323" width="14.1618" height="14.1519" fill="#301E14"/>
<rect x="265.704" y="14.1519" width="14.1618" height="14.1519" fill="#301E14"/>
<rect x="84.2964" y="56.2837" width="13.4875" height="13.478" fill="#301E14"/>
<rect x="252.216" y="56.2837" width="13.4875" height="13.478" fill="#301E14"/>
<rect x="97.7842" y="69.7617" width="14.1618" height="14.1519" fill="#301E14"/>
<rect x="265.704" y="69.7617" width="14.1618" height="14.1519" fill="#301E14"/>
<rect x="97.7842" y="98.0664" width="14.1618" height="14.1519" fill="#301E14"/>
<rect x="265.704" y="98.0664" width="14.1618" height="14.1519" fill="#301E14"/>
<rect x="97.7842" y="125.696" width="14.1618" height="14.1519" fill="#301E14"/>
<rect x="265.704" y="125.696" width="14.1618" height="14.1519" fill="#301E14"/>
<rect x="84.2964" y="83.9146" width="13.4875" height="14.1519" fill="#301E14"/>
<rect x="252.216" y="83.9146" width="13.4875" height="14.1519" fill="#301E14"/>
<rect x="84.2964" y="112.218" width="13.4875" height="13.478" fill="#301E14"/>
<rect x="252.216" y="112.218" width="13.4875" height="13.478" fill="#301E14"/>
<rect x="84.2964" y="139.848" width="13.4875" height="14.1519" fill="#301E14"/>
<rect x="252.216" y="139.848" width="13.4875" height="14.1519" fill="#301E14"/>
<rect x="111.946" y="27.9805" width="14.1618" height="14.1519" fill="#301E14"/>
<rect x="111.946" width="14.1618" height="14.1519" fill="#301E14"/>
<rect x="279.864" y="27.9805" width="14.1618" height="14.1519" fill="#301E14"/>
<rect x="279.864" width="14.1618" height="14.1519" fill="#301E14"/>
<rect x="126.108" y="42.1323" width="14.1618" height="14.1519" fill="#301E14"/>
<rect x="126.108" y="14.1519" width="14.1618" height="14.1519" fill="#301E14"/>
<rect x="294.027" y="42.1323" width="14.1618" height="14.1519" fill="#301E14"/>
<rect x="294.027" y="14.1519" width="14.1618" height="14.1519" fill="#301E14"/>
<rect x="111.946" y="56.2837" width="14.1618" height="13.478" fill="#301E14"/>
<rect x="279.864" y="56.2837" width="14.1618" height="13.478" fill="#301E14"/>
<rect x="126.108" y="69.7617" width="14.1618" height="14.1519" fill="#301E14"/>
<rect x="294.027" y="69.7617" width="14.1618" height="14.1519" fill="#301E14"/>
<rect x="126.108" y="98.0664" width="14.1618" height="14.1519" fill="#301E14"/>
<rect x="294.027" y="98.0664" width="14.1618" height="14.1519" fill="#301E14"/>
<rect x="126.108" y="125.696" width="14.1618" height="14.1519" fill="#301E14"/>
<rect x="294.027" y="125.696" width="14.1618" height="14.1519" fill="#301E14"/>
<rect x="111.946" y="83.9146" width="14.1618" height="14.1519" fill="#301E14"/>
<rect x="279.864" y="83.9146" width="14.1618" height="14.1519" fill="#301E14"/>
<rect x="111.946" y="112.218" width="14.1618" height="13.478" fill="#301E14"/>
<rect x="279.864" y="112.218" width="14.1618" height="13.478" fill="#301E14"/>
<rect x="111.946" y="139.848" width="14.1618" height="14.1519" fill="#301E14"/>
<rect x="279.864" y="139.848" width="14.1618" height="14.1519" fill="#301E14"/>
<rect x="140.27" y="27.9805" width="14.1618" height="14.1519" fill="#301E14"/>
<rect x="140.27" width="14.1618" height="14.1519" fill="#301E14"/>
<rect x="308.189" y="27.9805" width="14.1618" height="14.1519" fill="#301E14"/>
<rect x="308.189" width="14.1618" height="14.1519" fill="#301E14"/>
<rect x="335.838" y="27.9805" width="14.1618" height="14.1519" fill="#301E14"/>
<rect x="335.838" width="14.1618" height="14.1519" fill="#301E14"/>
<rect x="154.432" y="42.1323" width="13.4875" height="14.1519" fill="#301E14"/>
<rect x="154.432" y="14.1519" width="13.4875" height="14.1519" fill="#301E14"/>
<rect x="322.351" y="42.1323" width="13.4875" height="14.1519" fill="#301E14"/>
<rect x="322.351" y="14.1519" width="13.4875" height="14.1519" fill="#301E14"/>
<rect x="140.27" y="56.2837" width="14.1618" height="13.478" fill="#301E14"/>
<rect x="308.189" y="56.2837" width="14.1618" height="13.478" fill="#301E14"/>
<rect x="335.838" y="56.2837" width="14.1618" height="13.478" fill="#301E14"/>
<rect x="154.432" y="69.7617" width="13.4875" height="14.1519" fill="#301E14"/>
<rect x="322.351" y="69.7617" width="13.4875" height="14.1519" fill="#301E14"/>
<rect x="154.432" y="98.0664" width="13.4875" height="14.1519" fill="#301E14"/>
<rect x="322.351" y="98.0664" width="13.4875" height="14.1519" fill="#301E14"/>
<rect x="154.432" y="125.696" width="13.4875" height="14.1519" fill="#301E14"/>
<rect x="322.351" y="125.696" width="13.4875" height="14.1519" fill="#301E14"/>
<rect x="140.27" y="83.9146" width="14.1618" height="14.1519" fill="#301E14"/>
<rect x="308.189" y="83.9146" width="14.1618" height="14.1519" fill="#301E14"/>
<rect x="335.838" y="83.9146" width="14.1618" height="14.1519" fill="#301E14"/>
<rect x="140.27" y="112.218" width="14.1618" height="13.478" fill="#301E14"/>
<rect x="308.189" y="112.218" width="14.1618" height="13.478" fill="#301E14"/>
<rect x="335.838" y="112.218" width="14.1618" height="13.478" fill="#301E14"/>
<rect x="140.27" y="139.848" width="14.1618" height="14.1519" fill="#301E14"/>
<rect x="308.189" y="139.848" width="14.1618" height="14.1519" fill="#301E14"/>
<rect x="335.838" y="139.848" width="14.1618" height="14.1519" fill="#301E14"/>
</svg>
