<svg width="61" height="61" viewBox="0 0 61 61" fill="none" xmlns="http://www.w3.org/2000/svg">
    <rect x="1" y="0.537598" width="59" height="59" rx="11.5" stroke="#fff" />
    <path
        d="M42.3735 20.3326V39.9503C42.3735 41.062 41.736 41.9121 40.9023 41.9121H39.4311V24.1083L30.133 35.7913L21.7764 24.1083V41.9121H20.3052C19.4705 41.9121 18.834 41.062 18.834 39.9503V20.3326C18.834 19.7767 18.9929 19.2863 19.2567 18.9358C19.3944 18.7532 19.5581 18.6091 19.7382 18.5121C19.9182 18.4151 20.111 18.367 20.3052 18.3708H20.7956L30.133 31.083L40.4119 18.3708H40.9023C41.3191 18.3708 41.687 18.5827 41.9508 18.9358C42.2156 19.2863 42.3735 19.7767 42.3735 20.3326Z"
        fill="#F33000" />
</svg>