<svg width="61" height="61" viewBox="0 0 61 61" fill="none" xmlns="http://www.w3.org/2000/svg">
    <rect x="1" y="0.537598" width="59" height="59" rx="11.5" stroke="#fff" />
    <path
        d="M42.2305 20.5806L31.4489 31.4165C31.3013 31.5692 31.1245 31.6907 30.929 31.7736C30.7335 31.8565 30.5233 31.8992 30.3109 31.8992C30.0985 31.8992 29.8884 31.8565 29.6929 31.7736C29.4974 31.6907 29.3205 31.5692 29.1729 31.4165L18.3945 20.5806H42.2315H42.2305ZM16.9238 21.9205L24.484 29.5204L16.9238 37.6631V21.9205ZM36.1399 29.5204L43.7001 37.6631V21.9205L36.1399 29.5204Z"
        fill="#F33000" />
    <path
        d="M32.7561 32.9219L34.7416 30.926L42.3492 39.1185H18.2773L25.8828 30.926L27.8694 32.9219C28.1878 33.2473 28.5678 33.5063 28.9871 33.6836C29.4065 33.8609 29.8569 33.9531 30.3122 33.9548C31.1907 33.9548 32.0702 33.6109 32.7561 32.9219Z"
        fill="#F33000" />
</svg>