<svg width="61" height="61" viewBox="0 0 61 61" fill="none" xmlns="http://www.w3.org/2000/svg">
    <rect x="1" y="0.537598" width="59" height="59" rx="11.5" stroke="#fff" />
    <path
        d="M40.8044 20.8355C40.7963 20.8195 40.7828 20.807 40.7665 20.8002C38.874 19.9178 36.8769 19.2886 34.8251 18.9283C34.8065 18.9248 34.7872 18.9273 34.7701 18.9356C34.7529 18.9438 34.7388 18.9573 34.7296 18.9742C34.4577 19.4758 34.2108 19.991 33.99 20.5179C31.7783 20.1767 29.5286 20.1767 27.3169 20.5179C27.0946 19.9897 26.8438 19.4743 26.5656 18.9742C26.556 18.9577 26.5418 18.9445 26.5248 18.9363C26.5077 18.9281 26.4887 18.9253 26.4701 18.9283C24.4181 19.2878 22.4208 19.9171 20.5286 20.8002C20.5124 20.8072 20.4987 20.8191 20.4895 20.8343C16.7053 26.577 15.6687 32.1785 16.1773 37.7106C16.1787 37.7242 16.1828 37.7373 16.1893 37.7492C16.1958 37.7611 16.2047 37.7716 16.2152 37.78C18.4187 39.4379 20.8833 40.7034 23.5038 41.5225C23.5223 41.5281 23.542 41.5279 23.5603 41.5218C23.5786 41.5157 23.5946 41.504 23.6062 41.4884C24.1691 40.7102 24.6678 39.8861 25.0973 39.0245C25.1032 39.0127 25.1066 38.9997 25.1072 38.9865C25.1078 38.9732 25.1057 38.96 25.1009 38.9477C25.0961 38.9354 25.0888 38.9242 25.0795 38.9149C25.0701 38.9057 25.059 38.8985 25.0467 38.894C24.2603 38.5882 23.4989 38.2196 22.7698 37.7916C22.7565 37.7837 22.7454 37.7725 22.7374 37.7592C22.7294 37.7459 22.7247 37.7308 22.7238 37.7152C22.7229 37.6996 22.7258 37.684 22.7322 37.6699C22.7386 37.6557 22.7484 37.6433 22.7606 37.6339C22.914 37.5174 23.0648 37.3974 23.2128 37.2738C23.2258 37.263 23.2415 37.256 23.2581 37.2537C23.2748 37.2514 23.2918 37.2539 23.3071 37.2609C28.084 39.4764 33.2557 39.4764 37.9761 37.2609C37.9915 37.2535 38.0087 37.2507 38.0256 37.2527C38.0425 37.2548 38.0585 37.2617 38.0716 37.2727C38.2198 37.3969 38.371 37.5173 38.525 37.6339C38.5373 37.6432 38.5471 37.6555 38.5536 37.6696C38.5602 37.6838 38.5631 37.6993 38.5624 37.7149C38.5616 37.7305 38.557 37.7456 38.5491 37.759C38.5412 37.7724 38.5301 37.7836 38.5169 37.7916C37.7894 38.2232 37.0274 38.5915 36.2389 38.8928C36.2266 38.8975 36.2155 38.9048 36.2062 38.9142C36.197 38.9237 36.1898 38.9349 36.1851 38.9474C36.1804 38.9598 36.1783 38.9731 36.179 38.9864C36.1798 38.9997 36.1832 39.0127 36.1892 39.0245C36.626 39.8813 37.1239 40.7043 37.6792 41.487C37.6904 41.5031 37.7064 41.5151 37.7248 41.5215C37.7432 41.5278 37.763 41.5281 37.7816 41.5224C40.4068 40.706 42.8757 39.4404 45.082 37.78C45.0927 37.772 45.1016 37.7618 45.1082 37.75C45.1147 37.7383 45.1187 37.7252 45.1199 37.7118C45.7287 31.316 44.1007 25.7605 40.8044 20.8355ZM25.8107 34.3421C24.3725 34.3421 23.1875 33.0009 23.1875 31.3537C23.1875 29.7066 24.3495 28.3653 25.8107 28.3653C27.2833 28.3653 28.4569 29.7182 28.4339 31.3536C28.4339 33.0009 27.2718 34.3421 25.8107 34.3421ZM35.5097 34.3421C34.0715 34.3421 32.8865 33.0009 32.8865 31.3537C32.8865 29.7066 34.0485 28.3653 35.5097 28.3653C36.9824 28.3653 38.1559 29.7182 38.1329 31.3536C38.1329 33.0009 36.9824 34.3421 35.5097 34.3421Z"
        fill="#F33000" />
</svg>