<svg width="80" height="80" viewBox="0 0 80 80" fill="none" xmlns="http://www.w3.org/2000/svg">
<circle cx="40" cy="40" r="40" fill="black"/>
<path d="M30.4149 28C23.5583 28 18 33.5967 18 40.5C18 47.4033 23.5588 53 30.4149 53C37.2709 53 42.8297 47.4037 42.8297 40.5C42.8297 33.5963 37.2716 28 30.4149 28ZM50.2408 28.7322C46.8124 28.7322 44.0337 34.0021 44.0337 40.5002C44.0337 46.9983 46.8128 52.2685 50.2412 52.2685C53.6696 52.2685 56.4487 46.9986 56.4487 40.5002H56.4482C56.4482 34.0003 53.6695 28.7322 50.2409 28.7322H50.2408ZM59.836 29.958C58.6306 29.958 57.6533 34.6782 57.6533 40.5002C57.6533 46.3222 58.63 51.0424 59.836 51.0424C61.0421 51.0424 62.0194 46.3209 62.0194 40.5C62.0194 34.6778 61.0417 29.958 59.8362 29.958H59.836Z" fill="white"/>
</svg>
