<svg width="473" height="483" viewBox="0 0 473 483" fill="none" xmlns="http://www.w3.org/2000/svg">
<g clip-path="url(#clip0_199_242)">
<path d="M154.756 182.193C157.259 179.903 159.936 180.314 161.306 180.757C162.518 177.631 165.132 174.063 170.737 174.063C180.737 174.063 181.524 183.914 181.524 183.914C188.562 181.783 189.917 188.017 189.917 188.27H152.11C152.11 184.245 154.756 182.193 154.756 182.193Z" fill="white"/>
<path d="M345.191 200.266C347.018 200.266 348.734 200.755 350.23 201.624C353.08 196.652 358.324 193.305 364.339 193.305C369.96 193.305 374.904 196.21 377.865 200.645C379.423 195.31 384.226 191.41 389.943 191.41C396.415 191.41 401.736 196.43 402.46 202.87C402.981 202.792 403.516 202.729 404.051 202.729C408.003 202.729 411.42 205.017 413.137 208.38H335.224C336.278 203.739 340.342 200.266 345.191 200.266Z" fill="white"/>
<path d="M295.401 10.797C298.375 10.797 300.786 8.38003 300.786 5.39852C300.786 2.417 298.375 0 295.401 0C292.427 0 290.017 2.417 290.017 5.39852C290.017 8.38003 292.427 10.797 295.401 10.797Z" fill="#E2E8F0"/>
<path d="M177.069 118.121C177.069 120.11 175.461 121.735 173.463 121.735C171.478 121.735 169.856 120.125 169.856 118.121C169.856 116.132 171.462 114.506 173.463 114.506C175.461 114.506 177.069 116.132 177.069 118.121Z" fill="#754FFE"/>
<path d="M321.037 99.1465L318.879 97.9942C318.738 97.9153 318.628 97.8048 318.565 97.6785L317.415 95.516C317.116 94.9634 316.345 94.9634 316.045 95.516L314.896 97.6785C314.817 97.8205 314.707 97.931 314.58 97.9942L312.423 99.1465C311.872 99.4464 311.872 100.22 312.423 100.52L314.58 101.672C314.722 101.751 314.833 101.862 314.896 101.988L316.045 104.15C316.345 104.703 317.116 104.703 317.415 104.15L318.565 101.988C318.644 101.846 318.753 101.735 318.879 101.672L321.037 100.52C321.588 100.22 321.588 99.4306 321.037 99.1465Z" fill="#E2E8F0"/>
<path d="M193.886 26.7716L191.162 25.3035C190.989 25.2089 190.847 25.0668 190.768 24.9089L189.304 22.1782C188.942 21.4836 187.949 21.4836 187.572 22.1782L186.107 24.9089C186.013 25.0826 185.87 25.2246 185.713 25.3035L182.989 26.7716C182.297 27.1346 182.297 28.129 182.989 28.4922L185.713 29.9601C185.887 30.0549 186.029 30.1969 186.107 30.3548L187.572 33.0856C187.934 33.7802 188.925 33.7802 189.304 33.0856L190.768 30.3548C190.862 30.1812 191.004 30.0391 191.162 29.9601L193.886 28.4922C194.579 28.129 194.579 27.1505 193.886 26.7716Z" fill="#CBD5E1"/>
<path d="M382.542 81.5306L379.251 79.7625C379.046 79.652 378.874 79.4784 378.763 79.2733L377 75.9742C376.558 75.1375 375.362 75.1375 374.921 75.9742L373.157 79.2733C373.047 79.4784 372.873 79.652 372.669 79.7625L369.378 81.5306C368.543 81.9725 368.543 83.1721 369.378 83.6142L372.669 85.3821C372.873 85.4926 373.047 85.6662 373.157 85.8714L374.921 89.1706C375.362 90.0071 376.558 90.0071 377 89.1706L378.763 85.8714C378.874 85.6662 379.046 85.4926 379.251 85.3821L382.542 83.6142C383.376 83.1721 383.376 81.9725 382.542 81.5306Z" fill="#CBD5E1"/>
<path d="M126.223 68.8386L123.216 67.2127C123.027 67.118 122.869 66.9602 122.774 66.7707L121.153 63.7558C120.743 62.9981 119.657 62.9981 119.248 63.7558L117.626 66.7707C117.531 66.9602 117.374 67.118 117.185 67.2127L114.177 68.8386C113.421 69.249 113.421 70.3381 114.177 70.7486L117.185 72.3744C117.374 72.4692 117.531 72.6269 117.626 72.8164L119.248 75.8313C119.657 76.5891 120.743 76.5891 121.153 75.8313L122.774 72.8164C122.869 72.6269 123.027 72.4692 123.216 72.3744L126.223 70.7486C126.979 70.3381 126.979 69.249 126.223 68.8386Z" fill="#754FFE"/>
<path d="M327.273 50.0079L325.068 48.8239C324.926 48.745 324.816 48.6346 324.738 48.4925L323.557 46.2826C323.257 45.73 322.454 45.73 322.156 46.2826L320.975 48.4925C320.895 48.6346 320.785 48.745 320.644 48.8239L318.439 50.0079C317.888 50.3077 317.888 51.1128 318.439 51.4128L320.644 52.5966C320.785 52.6756 320.895 52.7861 320.975 52.9281L322.156 55.138C322.454 55.6905 323.257 55.6905 323.557 55.138L324.738 52.9281C324.816 52.7861 324.926 52.6756 325.068 52.5966L327.273 51.4128C327.839 51.1128 327.839 50.3077 327.273 50.0079Z" fill="#754FFE"/>
<path d="M265.971 209.516H234.589V357.25H265.971V209.516Z" fill="white"/>
<path d="M262.271 217.961C262.271 211.616 257.138 206.454 250.792 206.454C244.462 206.454 239.313 211.6 239.313 217.961C239.313 217.961 237.832 245.159 250.792 259.634C263.751 245.159 262.271 217.961 262.271 217.961Z" fill="#E2E8F0"/>
<path d="M210.719 155.673C210.719 155.673 167.747 176.526 184.769 238.056C184.769 238.056 193.854 207.132 223.016 199.129L210.719 155.673Z" fill="#754FFE"/>
<path d="M291.244 155.673C291.244 155.673 334.217 176.526 317.194 238.056C317.194 238.056 308.109 207.132 278.947 199.129L291.244 155.673Z" fill="#754FFE"/>
<path d="M264.933 211.947H235.723C234.574 211.947 233.566 211.142 233.315 210.021L231.709 202.933C231.362 201.386 232.527 199.919 234.117 199.919H266.524C268.114 199.919 269.28 201.386 268.933 202.933L267.327 210.021C267.075 211.142 266.083 211.947 264.933 211.947Z" fill="#1E293B"/>
<path d="M208.183 139.052C208.183 139.052 212.672 180.313 226.528 206.454C226.528 206.454 248.526 195.83 274.618 206.454C274.618 206.454 290.505 184.402 293.765 135.784C295.639 107.765 293.403 75.7843 284.144 48.2393H219.505C210.892 70.6857 204.767 100.82 208.183 139.052Z" fill="#CBD5E1"/>
<path d="M245.785 3.53591C239.282 10.9076 228.134 25.6824 219.488 48.2394H284.127C278.207 30.6074 269.421 14.7907 256.981 2.98343C253.784 -0.0473146 248.714 0.221033 245.785 3.53591Z" fill="#1E293B"/>
<path d="M249.833 137.062C249.833 137.062 230.008 182.223 249.833 235.909C249.833 235.909 271.862 191.11 249.833 137.062Z" fill="#754FFE"/>
<path d="M251.69 120.156C265.465 120.156 276.633 108.962 276.633 95.1531C276.633 81.3438 265.465 70.1494 251.69 70.1494C237.915 70.1494 226.748 81.3438 226.748 95.1531C226.748 108.962 237.915 120.156 251.69 120.156Z" fill="#1E293B"/>
<path d="M268.557 99.1238C270.745 89.7882 264.969 80.4424 255.656 78.2493C246.344 76.0561 237.021 81.8461 234.833 91.1817C232.646 100.517 238.421 109.863 247.733 112.056C257.046 114.249 266.369 108.459 268.557 99.1238Z" fill="#F59E0B"/>
<path d="M207.222 399.664C227.38 399.664 243.722 383.508 243.722 363.579C243.722 343.65 227.38 327.495 207.222 327.495C187.064 327.495 170.722 343.65 170.722 363.579C170.722 383.508 187.064 399.664 207.222 399.664Z" fill="white"/>
<path d="M318.896 395.908C336.957 395.908 351.601 381.434 351.601 363.579C351.601 345.725 336.957 331.252 318.896 331.252C300.833 331.252 286.19 345.725 286.19 363.579C286.19 381.434 300.833 395.908 318.896 395.908Z" fill="white"/>
<path d="M264.949 360.832C279.072 360.832 290.52 349.518 290.52 335.56C290.52 321.603 279.072 310.289 264.949 310.289C250.825 310.289 239.376 321.603 239.376 335.56C239.376 349.518 250.825 360.832 264.949 360.832Z" fill="white"/>
<path d="M218.338 337.834C228.175 337.834 236.148 329.954 236.148 320.233C236.148 310.513 228.175 302.633 218.338 302.633C208.503 302.633 200.53 310.513 200.53 320.233C200.53 329.954 208.503 337.834 218.338 337.834Z" fill="white"/>
<path d="M263.767 317.723C270.49 317.723 275.939 312.338 275.939 305.695C275.939 299.052 270.49 293.667 263.767 293.667C257.044 293.667 251.595 299.052 251.595 305.695C251.595 312.338 257.044 317.723 263.767 317.723Z" fill="white"/>
<path d="M242.115 356.618C254.029 356.618 263.688 347.07 263.688 335.292C263.688 323.515 254.029 313.966 242.115 313.966C230.202 313.966 220.543 323.515 220.543 335.292C220.543 347.07 230.202 356.618 242.115 356.618Z" fill="white"/>
<path d="M69.898 482.678C106.328 482.678 135.859 453.491 135.859 417.485C135.859 381.481 106.328 352.293 69.898 352.293C33.4686 352.293 3.93652 381.481 3.93652 417.485C3.93652 453.491 33.4686 482.678 69.898 482.678Z" fill="white"/>
<path d="M149.086 429.008C176.402 429.008 198.546 407.128 198.546 380.137C198.546 353.147 176.402 331.267 149.086 331.267C121.77 331.267 99.627 353.147 99.627 380.137C99.627 407.128 121.77 429.008 149.086 429.008Z" fill="white"/>
<path d="M390.935 482.489C429.538 482.489 460.832 451.555 460.832 413.398C460.832 375.239 429.538 344.306 390.935 344.306C352.331 344.306 321.036 375.239 321.036 413.398C321.036 451.555 352.331 482.489 390.935 482.489Z" fill="white"/>
<path d="M217.584 446.072C244.899 446.072 267.042 424.191 267.042 397.201C267.042 370.21 244.899 348.33 217.584 348.33C190.268 348.33 168.124 370.21 168.124 397.201C168.124 424.191 190.268 446.072 217.584 446.072Z" fill="white"/>
<path d="M277.011 446.071C307.71 446.071 332.596 421.477 332.596 391.14C332.596 360.802 307.71 336.208 277.011 336.208C246.313 336.208 221.426 360.802 221.426 391.14C221.426 421.477 246.313 446.071 277.011 446.071Z" fill="white"/>
</g>
<defs>
<clipPath id="clip0_199_242">
<rect width="472.643" height="482.678" fill="white"/>
</clipPath>
</defs>
</svg>
