<svg width="417" height="419" viewBox="0 0 417 419" fill="none" xmlns="http://www.w3.org/2000/svg">
<g clip-path="url(#clip0_199_180)">
<path d="M189.476 149.004C191.584 148.787 192.773 149.989 193.295 150.72C195.067 149.602 197.706 148.785 200.517 150.87C205.53 154.589 202.257 159.826 202.257 159.826C206.58 161.374 204.938 165.007 204.844 165.134L185.887 151.07C187.386 149.05 189.476 149.004 189.476 149.004Z" fill="white"/>
<path d="M278.233 228.916C279.15 229.596 279.828 230.479 280.255 231.472C283.535 230.037 287.41 230.308 290.426 232.546C293.245 234.637 294.642 237.933 294.475 241.261C297.243 239.163 301.103 238.993 303.97 241.119C307.215 243.527 308.014 248.026 305.979 251.527C306.269 251.681 306.561 251.849 306.829 252.048C308.811 253.518 309.673 255.937 309.281 258.264L270.215 229.28C272.472 227.344 275.802 227.112 278.233 228.916Z" fill="white"/>
<path d="M323.815 115.307C325.306 116.414 327.415 116.098 328.525 114.601C329.635 113.105 329.326 110.995 327.835 109.889C326.344 108.783 324.235 109.099 323.125 110.595C322.015 112.091 322.323 114.201 323.815 115.307Z" fill="#E2E8F0"/>
<path d="M224.52 125.149C223.78 126.148 222.369 126.366 221.366 125.622C220.371 124.884 220.158 123.472 220.904 122.466C221.645 121.468 223.055 121.25 224.058 121.994C225.06 122.737 225.261 124.151 224.52 125.149Z" fill="#754FFE"/>
<path d="M303.772 169.183L303.119 167.802C303.078 167.71 303.064 167.614 303.079 167.527L303.308 166.014C303.364 165.625 302.977 165.338 302.621 165.504L301.24 166.162C301.147 166.204 301.051 166.218 300.964 166.203L299.453 165.979C299.065 165.924 298.777 166.312 298.942 166.668L299.594 168.049C299.636 168.141 299.65 168.238 299.635 168.324L299.406 169.837C299.351 170.226 299.738 170.513 300.093 170.347L301.475 169.689C301.567 169.647 301.663 169.633 301.75 169.648L303.261 169.872C303.649 169.927 303.943 169.531 303.772 169.183Z" fill="#E2E8F0"/>
<path d="M266.966 85.5607L266.146 83.8107C266.095 83.6985 266.076 83.5745 266.096 83.4661L266.378 81.5509C266.455 81.0676 265.958 80.6983 265.51 80.9065L263.759 81.7322C263.647 81.7843 263.522 81.8025 263.414 81.7836L261.502 81.5071C261.019 81.4315 260.649 81.9306 260.861 82.3706L261.68 84.1206C261.732 84.2328 261.75 84.3568 261.731 84.4653L261.449 86.3805C261.371 86.8637 261.869 87.2326 262.317 87.0249L264.068 86.1991C264.18 86.147 264.304 86.1284 264.413 86.1476L266.325 86.4242C266.808 86.4998 267.172 86.0086 266.966 85.5607Z" fill="#CBD5E1"/>
<path d="M341.17 183.222L340.179 181.111C340.117 180.979 340.095 180.828 340.116 180.684L340.46 178.372C340.55 177.788 339.951 177.343 339.418 177.599L337.305 178.598C337.174 178.661 337.022 178.683 336.878 178.662L334.57 178.326C333.987 178.237 333.54 178.839 333.794 179.371L334.786 181.483C334.847 181.614 334.87 181.766 334.848 181.91L334.505 184.222C334.414 184.805 335.014 185.251 335.547 184.995L337.659 183.995C337.791 183.933 337.943 183.911 338.086 183.931L340.395 184.268C340.978 184.357 341.424 183.755 341.17 183.222Z" fill="#CBD5E1"/>
<path d="M217.375 81.5026L216.473 79.568C216.413 79.45 216.393 79.3124 216.416 79.1818L216.725 77.0656C216.802 76.5329 216.258 76.129 215.77 76.357L213.834 77.2666C213.717 77.3265 213.579 77.3471 213.449 77.3244L211.335 77.0215C210.804 76.9464 210.398 77.4929 210.624 77.9801L211.527 79.9148C211.586 80.0327 211.607 80.1705 211.583 80.3007L211.274 82.4172C211.197 82.9498 211.742 83.3537 212.229 83.1258L214.165 82.2159C214.283 82.1563 214.421 82.1355 214.551 82.1584L216.664 82.4612C217.196 82.5364 217.602 81.9899 217.375 81.5026Z" fill="#754FFE"/>
<path d="M325.195 146.842L324.53 145.427C324.488 145.335 324.475 145.239 324.488 145.138L324.719 143.59C324.774 143.201 324.372 142.903 324.016 143.069L322.601 143.738C322.508 143.78 322.412 143.795 322.312 143.782L320.766 143.556C320.378 143.501 320.078 143.905 320.242 144.261L320.907 145.675C320.949 145.767 320.963 145.863 320.95 145.964L320.719 147.513C320.663 147.901 321.066 148.2 321.422 148.034L322.837 147.364C322.929 147.322 323.025 147.308 323.125 147.321L324.672 147.547C325.068 147.607 325.367 147.203 325.195 146.842Z" fill="#754FFE"/>
<path d="M235.068 204.088L219.333 192.414L164.326 266.556L180.062 278.23L235.068 204.088Z" fill="white"/>
<path d="M230.068 206.951C232.431 203.766 231.779 199.266 228.597 196.906C225.423 194.551 220.925 195.218 218.557 198.41C218.557 198.41 207.687 211.509 208.796 223.595C220.683 221.151 230.068 206.951 230.068 206.951Z" fill="#E2E8F0"/>
<path d="M227.412 156.513C227.412 156.513 198.101 150.993 183.726 188.204C183.726 188.204 199.795 176.065 217.397 182.897L227.412 156.513Z" fill="#754FFE"/>
<path d="M267.788 186.468C267.788 186.468 281.57 212.919 250.125 237.466C250.125 237.466 257.084 218.567 245.442 203.703L267.788 186.468Z" fill="#754FFE"/>
<path d="M233.642 204.922L218.996 194.056C218.42 193.629 218.214 192.85 218.505 192.194L220.339 188.039C220.741 187.134 221.872 186.831 222.669 187.423L238.918 199.478C239.715 200.07 239.754 201.239 239.004 201.887L235.56 204.846C235.015 205.315 234.219 205.35 233.642 204.922Z" fill="#1E293B"/>
<path d="M232.328 147.228C232.328 147.228 219.216 169.605 216.43 187.879C216.43 187.879 231.416 190.73 240.543 205.768C240.543 205.768 256.72 200.611 276.456 177.424C287.828 164.06 298.615 147.179 304.228 129.911L271.818 105.865C259.141 113.926 244.85 126.77 232.328 147.228Z" fill="#CBD5E1"/>
<path d="M301.64 93.2061C295.635 94.4866 284.544 97.7544 271.81 105.859L304.22 129.904C307.817 118.853 309.301 107.647 307.459 97.0937C306.985 94.3835 304.343 92.632 301.64 93.2061Z" fill="#1E293B"/>
<path d="M253.952 161.724C253.952 161.724 227.197 177.014 217.148 211.331C217.148 211.331 244.874 197.044 253.952 161.724Z" fill="#754FFE"/>
<path d="M261.179 153.93C268.086 159.055 277.853 157.591 282.995 150.661C288.136 143.731 286.705 133.959 279.798 128.834C272.891 123.71 263.124 125.174 257.982 132.104C252.841 139.034 254.272 148.806 261.179 153.93Z" fill="#1E293B"/>
<path d="M277.467 149.649C282.04 145.778 282.624 138.939 278.771 134.374C274.918 129.809 268.088 129.247 263.515 133.118C258.942 136.99 258.358 143.828 262.211 148.393C266.063 152.958 272.894 153.52 277.467 149.649Z" fill="#F59E0B"/>
<path d="M134.811 277.662C144.919 285.161 159.128 283.132 166.548 273.13C173.969 263.129 171.79 248.942 161.683 241.443C151.575 233.945 137.366 235.973 129.946 245.974C122.525 255.976 124.704 270.163 134.811 277.662Z" fill="white"/>
<path d="M192.204 317.319C201.26 324.038 213.992 322.221 220.64 313.261C227.287 304.3 225.334 291.589 216.278 284.87C207.221 278.151 194.49 279.968 187.842 288.928C181.194 297.888 183.147 310.599 192.204 317.319Z" fill="white"/>
<path d="M178.214 279.648C185.296 284.902 195.249 283.483 200.446 276.478C205.643 269.473 204.115 259.536 197.033 254.283C189.952 249.029 179.998 250.447 174.802 257.452C169.605 264.457 171.133 274.394 178.214 279.648Z" fill="white"/>
<path d="M163.407 250.767C168.338 254.426 175.27 253.437 178.889 248.559C182.509 243.681 181.445 236.76 176.513 233.101C171.582 229.443 164.65 230.431 161.031 235.31C157.412 240.188 158.475 247.108 163.407 250.767Z" fill="white"/>
<path d="M193.672 257.574C197.043 260.075 201.781 259.399 204.254 256.065C206.728 252.731 206 248.002 202.63 245.501C199.259 243 194.522 243.675 192.048 247.009C189.575 250.343 190.302 255.073 193.672 257.574Z" fill="white"/>
<path d="M168.335 269.039C174.309 273.471 182.707 272.272 187.092 266.361C191.477 260.45 190.19 252.065 184.216 247.633C178.242 243.201 169.844 244.4 165.459 250.311C161.073 256.222 162.362 264.607 168.335 269.039Z" fill="white"/>
<path d="M35.0472 268.238C53.3132 281.79 78.9879 278.128 92.394 260.058C105.8 241.989 101.86 216.355 83.5941 202.803C65.3281 189.252 39.6527 192.914 26.2471 210.983C12.841 229.053 16.7812 254.686 35.0472 268.238Z" fill="white"/>
<path d="M94.7355 270.762C108.432 280.923 127.682 278.18 137.731 264.634C147.781 251.089 144.824 231.871 131.128 221.709C117.432 211.548 98.1823 214.291 88.1328 227.837C78.0832 241.382 81.0393 260.6 94.7355 270.762Z" fill="white"/>
<path d="M196.089 387.568C215.445 401.929 242.653 398.046 256.861 378.896C271.069 359.746 266.895 332.58 247.539 318.22C228.182 303.859 200.974 307.742 186.766 326.892C172.558 346.042 176.732 373.208 196.089 387.568Z" fill="white"/>
<path d="M122.728 304.806C136.424 314.967 155.674 312.224 165.723 298.678C175.773 285.133 172.817 265.915 159.121 255.753C145.424 245.592 126.175 248.335 116.125 261.881C106.075 275.426 109.032 294.645 122.728 304.806Z" fill="white"/>
<path d="M152.524 326.913C167.917 338.333 189.552 335.248 200.848 320.023C212.144 304.797 208.823 283.197 193.43 271.777C178.038 260.358 156.402 263.442 145.106 278.668C133.811 293.893 137.132 315.494 152.524 326.913Z" fill="white"/>
</g>
<defs>
<clipPath id="clip0_199_180">
<rect width="295.087" height="301.624" fill="white" transform="translate(179.718) rotate(36.5721)"/>
</clipPath>
</defs>
</svg>
