<?xml version="1.0" encoding="utf-8"?>
<!-- Generator: Adobe Illustrator 24.0.0, SVG Export Plug-In . SVG Version: 6.00 Build 0)  -->
<svg version="1.1" id="图层_1" xmlns="http://www.w3.org/2000/svg" xmlns:xlink="http://www.w3.org/1999/xlink" x="0px" y="0px"
	 viewBox="0 0 124 120" style="enable-background:new 0 0 124 120;" xml:space="preserve">
<style type="text/css">
	.st0{clipRule:evenodd;clipRule:evenodd;fill:#8462FF;}
	.st1{clipRule:evenodd;clipRule:evenodd;fill:#FFFFFF;}
</style>
<path class="st0" d="M62,13.01c26.82,0,48.55,21.04,48.55,46.99S88.82,106.99,62,106.99S13.45,85.95,13.45,60S35.18,13.01,62,13.01z
	 M62,15.01c25.77,0,46.55,20.2,46.55,44.99S87.77,104.99,62,104.99S15.45,84.79,15.45,60S36.23,15.01,62,15.01z"/>
<path class="st1" d="M69.4,41.83c2.32,1.01,4.5,2.46,6.4,4.37c1.9,1.9,3.36,4.08,4.37,6.4L79.25,53c-0.96-2.2-2.34-4.28-4.16-6.09
	c-1.81-1.81-3.89-3.2-6.09-4.16L69.4,41.83z M43.5,52.21l0.93,0.37c0.88-2.24,2.22-4.33,4.02-6.13c1.8-1.8,3.89-3.14,6.13-4.02
	l-0.37-0.93c-2.37,0.93-4.57,2.34-6.47,4.24C45.84,47.64,44.43,49.85,43.5,52.21z M54.6,78.17l0.4-0.92
	c-2.2-0.96-4.28-2.34-6.09-4.16c-1.81-1.81-3.2-3.89-4.16-6.09l-0.92,0.4c1.01,2.32,2.46,4.5,4.37,6.4S52.28,77.16,54.6,78.17z
	 M69.79,78.5c2.37-0.93,4.57-2.34,6.47-4.24s3.31-4.11,4.24-6.47l-0.93-0.37c-0.88,2.24-2.22,4.33-4.02,6.13
	c-1.8,1.8-3.89,3.14-6.13,4.02L69.79,78.5z"/>
<rect x="60" y="0" class="st1" width="2" height="18.8"/>
<rect x="60" y="101.21" class="st1" width="2" height="18.8"/>
<rect x="104.58" y="58" class="st1" width="19.42" height="2"/>
<rect y="58" class="st1" width="19.42" height="2"/>
</svg>
