<svg width="1800" height="920" viewBox="0 0 1800 920" fill="none" xmlns="http://www.w3.org/2000/svg">
<path d="M32.8351 0H1767.16V8.72408H32.8351V0Z" fill="#FFE2D1"/>
<path d="M32.8351 911.276H1767.16V920H32.8351V911.276Z" fill="#FFE2D1"/>
<path d="M15.8095 8.72414L32.8351 8.72408L32.835 17.4482H15.8095V8.72414Z" fill="#FFE2D1"/>
<path d="M7.29706 19.3867H15.8098V36.8348H7.29706V19.3867Z" fill="#FFE2D1"/>
<path d="M1784.19 17.4483H1792.7V28.111H1784.19V17.4483Z" fill="#FFE2D1"/>
<path d="M7.29706 874.441H15.8098V891.889H7.29706V874.441Z" fill="#FFE2D1"/>
<path d="M1784.19 883.166H1792.7V892.859H1784.19V883.166Z" fill="#FFE2D1"/>
<path d="M15.8098 891.889L24.3222 891.889V902.552H15.8095L15.8098 891.889Z" fill="#FFE2D1"/>
<path d="M1775.68 892.859L1784.19 892.859L1784.19 902.553H1775.68V892.859Z" fill="#FFE2D1"/>
<path d="M0 36.8349L7.29706 36.8348V874.441L0 874.441V36.8349Z" fill="#FFE2D1"/>
<path d="M1792.7 28.111L1800 28.1103V883.165L1792.7 883.166V28.111Z" fill="#FFE2D1"/>
<path d="M1767.16 8.72408L1784.19 8.72414L1784.19 17.4483L1767.16 17.4482L1767.16 8.72408Z" fill="#FFE2D1"/>
<path d="M24.3222 902.552L41.3483 902.552V911.276H24.3227L24.3222 902.552Z" fill="#FFE2D1"/>
<path d="M1758.65 902.552L1775.68 902.553V911.276H1758.65V902.552Z" fill="#FFE2D1"/>
<path d="M1767.5 7.70089L32.5026 7.70089V17.327H15.396V36.5792H6.84266V875.72H15.396V893.047H23.9493V902.673H41.056V912.3H1758.94V902.673H1774.34V893.047H1784.6V883.421H1793.16V26.9531H1784.6V17.327H1767.5V7.70089Z" fill="black"/>
</svg>
